<svg viewBox="0 0 22 24" xmlns="http://www.w3.org/2000/svg"><path d="m21.696 5.464c-.589.857-1.326 1.621-2.17 2.237.013.188.013.375.013.562 0 5.719-4.353 12.308-12.308 12.308-2.451 0-4.728-.71-6.643-1.942.348.04.683.054 1.045.054 2.022 0 3.884-.683 5.371-1.848-1.902-.04-3.496-1.286-4.045-3 .268.04.536.067.817.067.388 0 .777-.054 1.138-.147-1.982-.402-3.469-2.143-3.469-4.246v-.054c.576.321 1.246.522 1.955.549-1.165-.777-1.929-2.103-1.929-3.603 0-.804.214-1.54.589-2.183 2.129 2.625 5.33 4.339 8.92 4.527-.067-.321-.107-.656-.107-.991 0-2.384 1.929-4.326 4.326-4.326 1.246 0 2.371.522 3.161 1.366.978-.188 1.915-.549 2.746-1.045-.321 1.004-1.004 1.848-1.902 2.384.871-.094 1.714-.335 2.491-.67z"/></svg>