<?xml version="1.0" standalone="no"?><!DOCTYPE svg PUBLIC "-//W3C//DTD SVG 1.1//EN" "http://www.w3.org/Graphics/SVG/1.1/DTD/svg11.dtd"><svg class="AppButton__base AppButton__color--black" width="160" height="43" viewBox="0 0 160 43" version="1.1" xmlns="http://www.w3.org/2000/svg" xmlns:xlink="http://www.w3.org/1999/xlink" style="cursor:pointer;font-weight:400;height:43px;perspective-origin:80px 21.5px;text-align:center;transform:matrix(1, 0, 0, 1, 0, 0);transform-origin:80px 21.5px;transition-duration:0.25s;width:160px;"><title style="border-bottom-color:rgb(235, 235, 235);border-left-color:rgb(235, 235, 235);border-right-color:rgb(235, 235, 235);border-top-color:rgb(235, 235, 235);color:rgb(235, 235, 235);cursor:pointer;font-weight:400;height:auto;outline-color:rgb(235, 235, 235);overflow:visible;overflow-x:visible;overflow-y:visible;perspective-origin:50% 50%;text-align:center;text-decoration-color:rgb(235, 235, 235);text-emphasis-color:rgb(235, 235, 235);transform-origin:0px 0px;width:auto;-moz-column-rule-color:rgb(235, 235, 235);-webkit-text-fill-color:rgb(235, 235, 235);-webkit-text-stroke-color:rgb(235, 235, 235);">app-ios</title><g fill="none" fill-rule="evenodd" style="border-bottom-color:rgb(235, 235, 235);border-left-color:rgb(235, 235, 235);border-right-color:rgb(235, 235, 235);border-top-color:rgb(235, 235, 235);color:rgb(235, 235, 235);cursor:pointer;font-weight:400;height:auto;outline-color:rgb(235, 235, 235);overflow:visible;overflow-x:visible;overflow-y:visible;perspective-origin:80px 21.5px;text-align:center;text-decoration-color:rgb(235, 235, 235);text-emphasis-color:rgb(235, 235, 235);transform-origin:0px 0px;width:auto;-moz-column-rule-color:rgb(235, 235, 235);-webkit-text-fill-color:rgb(235, 235, 235);-webkit-text-stroke-color:rgb(235, 235, 235);fill:none;fill-rule:evenodd;"><path d="M160 36.476c0 3.147-3.167 5.7-7.071 5.7H7.073c-3.906 0-7.073-2.553-7.073-5.7V5.7C0 2.553 3.167 0 7.073 0h145.856C156.833 0 160 2.553 160 5.7v30.776z" fill="#000" style="border-bottom-color:rgb(235, 235, 235);border-left-color:rgb(235, 235, 235);border-right-color:rgb(235, 235, 235);border-top-color:rgb(235, 235, 235);color:rgb(235, 235, 235);cursor:pointer;font-weight:400;height:auto;outline-color:rgb(235, 235, 235);overflow:visible;overflow-x:visible;overflow-y:visible;perspective-origin:80px 21.5px;text-align:center;text-decoration-color:rgb(235, 235, 235);text-emphasis-color:rgb(235, 235, 235);transform-origin:0px 0px;width:auto;-moz-column-rule-color:rgb(235, 235, 235);-webkit-text-fill-color:rgb(235, 235, 235);-webkit-text-stroke-color:rgb(235, 235, 235);fill-rule:evenodd;"/><path d="M55.303 33.748h-2.47l-1.353-4.247h-4.703l-1.289 4.247h-2.404l4.66-14.46h2.878l4.68 14.46zm-4.231-6.03l-1.223-3.775c-.13-.386-.374-1.295-.73-2.725h-.044c-.143.615-.373 1.524-.687 2.725l-1.203 3.775h3.887zm16.192.688c0 1.774-.482 3.175-1.447 4.204-.863.917-1.937 1.374-3.217 1.374-1.382 0-2.376-.492-2.98-1.48v5.471h-2.318V26.748c0-1.114-.03-2.256-.086-3.427h2.039l.13 1.654h.043c.773-1.247 1.947-1.87 3.521-1.87 1.232 0 2.26.486 3.082 1.459.82.975 1.233 2.255 1.233 3.842zm-2.362.085c0-1.015-.229-1.852-.688-2.51-.501-.686-1.174-1.03-2.018-1.03-.572 0-1.092.191-1.557.57-.465.378-.77.875-.912 1.491-.072.286-.108.52-.108.704v1.741c0 .756.233 1.396.699 1.92.465.522 1.07.784 1.814.784.873 0 1.553-.338 2.039-1.009.487-.672.73-1.56.73-2.661zm14.365-.085c0 1.774-.481 3.175-1.446 4.204-.865.917-1.937 1.374-3.218 1.374-1.381 0-2.375-.492-2.98-1.48v5.471h-2.319V26.748c0-1.114-.03-2.256-.086-3.427h2.04l.129 1.654h.043c.773-1.247 1.946-1.87 3.522-1.87 1.23 0 2.259.486 3.082 1.459.82.975 1.233 2.255 1.233 3.842zm-2.363.085c0-1.015-.23-1.852-.688-2.51-.5-.686-1.173-1.03-2.017-1.03-.572 0-1.092.191-1.558.57-.465.378-.77.875-.912 1.491-.07.286-.108.52-.108.704v1.741c0 .756.234 1.396.697 1.92.465.52 1.07.784 1.816.784.874 0 1.554-.338 2.04-1.009.487-.672.73-1.56.73-2.661zm15.784 1.202c0 1.23-.43 2.23-1.286 3.003-.942.844-2.257 1.266-3.943 1.266-1.557 0-2.806-.3-3.748-.9l.536-1.932a6.466 6.466 0 0 0 3.35.902c.875 0 1.554-.197 2.04-.59.487-.394.731-.919.731-1.575 0-.588-.202-1.081-.602-1.482-.402-.4-1.065-.773-1.996-1.114-2.534-.945-3.802-2.327-3.802-4.143 0-1.186.448-2.158 1.34-2.917.895-.759 2.08-1.138 3.555-1.138 1.317 0 2.415.23 3.286.687l-.582 1.888c-.82-.443-1.746-.665-2.781-.665-.818 0-1.46.201-1.919.601a1.72 1.72 0 0 0-.583 1.31c0 .571.223 1.045.668 1.416.385.343 1.088.716 2.104 1.116 1.246.502 2.16 1.086 2.748 1.758.59.671.884 1.51.884 2.509m7.686-4.633h-2.556v5.062c0 1.288.45 1.93 1.353 1.93.415 0 .758-.035 1.03-.108l.064 1.76c-.457.17-1.058.256-1.802.256-.917 0-1.631-.28-2.149-.838-.515-.558-.773-1.494-.773-2.81v-5.257h-1.522v-1.739h1.522v-1.909l2.277-.687v2.596h2.556v1.743m11.509 3.39c0 1.602-.458 2.918-1.375 3.947-.958 1.059-2.233 1.588-3.822 1.588-1.533 0-2.752-.507-3.662-1.522-.909-1.015-1.363-2.295-1.363-3.84 0-1.615.47-2.939 1.406-3.968.937-1.029 2.201-1.545 3.79-1.545 1.532 0 2.761.51 3.693 1.523.89.986 1.333 2.256 1.333 3.817zm-2.404.053c0-.955-.206-1.775-.62-2.46-.487-.828-1.184-1.241-2.085-1.241-.927 0-1.642.413-2.126 1.24-.416.686-.622 1.52-.622 2.504 0 .957.206 1.778.622 2.46.502.83 1.2 1.244 2.108 1.244.885 0 1.58-.424 2.084-1.263.425-.702.64-1.527.64-2.484zm9.944-3.144a4.04 4.04 0 0 0-.73-.063c-.817 0-1.447.306-1.891.923-.386.543-.579 1.23-.579 2.059v5.471h-2.318v-7.143c0-1.201-.023-2.298-.068-3.283h2.02l.085 1.995h.064c.246-.686.63-1.239 1.16-1.652a2.802 2.802 0 0 1 1.675-.56c.214 0 .408.017.58.043l.002 2.21m10.37 2.683c0 .415-.027.765-.085 1.05h-6.955c.025 1.031.363 1.82 1.008 2.363.586.485 1.346.728 2.275.728 1.03 0 1.97-.163 2.815-.493l.363 1.608c-.987.43-2.154.645-3.498.645-1.619 0-2.889-.476-3.813-1.426-.922-.95-1.385-2.23-1.385-3.83 0-1.57.429-2.88 1.29-3.924.9-1.115 2.117-1.673 3.649-1.673 1.504 0 2.643.558 3.415 1.673.613.883.92 1.978.92 3.28zm-2.211-.6c.016-.689-.136-1.28-.45-1.782-.402-.645-1.02-.967-1.847-.967-.76 0-1.376.314-1.846.944-.386.501-.615 1.104-.686 1.802l4.829.002zM44.84 14V7.496h.865v3.2l2.632-3.2h.928l-2.55 3.103L49.718 14h-1.169l-2.843-3.296V14h-.866zm9.7-.154c-.58.176-1.077.264-1.49.264-.704 0-1.277-.234-1.72-.701-.445-.467-.667-1.073-.667-1.817 0-.724.196-1.317.587-1.78a1.877 1.877 0 0 1 1.5-.694c.578 0 1.024.205 1.339.615.315.41.472.993.472 1.749l-.004.268h-3.01c.126 1.134.68 1.7 1.665 1.7.36 0 .803-.096 1.327-.29v.686zM51.585 11.1h2.105c0-.888-.33-1.332-.993-1.332-.665 0-1.036.444-1.112 1.332zm9.183 3.01c-.396 0-.876-.092-1.442-.277v-.795c.566.28 1.058.421 1.477.421a.944.944 0 0 0 .62-.202.628.628 0 0 0 .246-.505c0-.296-.23-.54-.69-.734l-.506-.215c-.747-.31-1.12-.758-1.12-1.34 0-.417.147-.744.441-.983.295-.239.698-.358 1.211-.358.267 0 .596.037.989.11l.18.035v.72c-.483-.143-.867-.215-1.151-.215-.557 0-.835.203-.835.607 0 .26.21.48.632.66l.418.175c.472.2.806.41 1.002.63.196.222.294.498.294.829 0 .419-.165.763-.496 1.033-.331.27-.755.404-1.27.404zm5.055 0c-.44 0-.783-.126-1.029-.378-.246-.252-.369-.602-.369-1.05V9.878h-.598v-.65h.598v-.866l.866-.084v.95h1.248v.65h-1.248v2.645c0 .624.27.936.808.936a1.9 1.9 0 0 0 .418-.057V14a2.69 2.69 0 0 1-.694.11zm4.694-.716c-.518.477-1.018.716-1.498.716-.396 0-.724-.124-.985-.371a1.239 1.239 0 0 1-.391-.939c0-.521.219-.922.657-1.202.438-.28 1.066-.42 1.883-.42h.207v-.575c0-.554-.285-.83-.853-.83-.457 0-.95.14-1.48.421v-.716c.582-.237 1.129-.356 1.638-.356.533 0 .927.12 1.18.36.254.24.38.614.38 1.121v2.162c0 .495.153.743.457.743.038 0 .094-.006.167-.018l.062.48a1.49 1.49 0 0 1-.65.14c-.405 0-.663-.239-.774-.716zm-.127-.47v-1.236l-.29-.008c-.475 0-.859.09-1.152.27-.293.18-.44.417-.44.71a.71.71 0 0 0 .22.527.737.737 0 0 0 .537.215c.36 0 .735-.16 1.125-.479zM73.002 14v-.65l2.953-3.472h-2.817v-.65h3.885v.65L74.07 13.35h3.01V14h-4.078zm3.586-7.049l-1.059 1.41h-.958l-1.06-1.41h.651l.884.888h.008l.884-.888h.65zm5.697 6.895c-.58.176-1.077.264-1.49.264-.703 0-1.277-.234-1.72-.701-.444-.467-.666-1.073-.666-1.817 0-.724.195-1.317.586-1.78a1.877 1.877 0 0 1 1.501-.694c.577 0 1.023.205 1.338.615.315.41.473.993.473 1.749l-.005.268h-3.01c.126 1.134.681 1.7 1.665 1.7.36 0 .803-.096 1.328-.29v.686zM79.33 11.1h2.105c0-.888-.33-1.332-.993-1.332-.665 0-1.035.444-1.112 1.332zM84.1 14V9.228h.865v.896c.457-.668 1.017-1.002 1.68-1.002.412 0 .742.131.988.393.246.263.369.615.369 1.057V14h-.866v-3.146c0-.355-.052-.608-.156-.759-.104-.15-.276-.226-.516-.226-.53 0-1.03.347-1.499 1.042V14H84.1zm5.885 0V9.228h.866V14h-.866zm-.198-5.638l1.06-1.41h1.001l-1.41 1.41h-.65zM97.024 14L95.25 9.228h.865l1.39 3.713 1.463-3.713h.808L97.89 14h-.866zm-66.999 6.865c-.031-3.531 2.882-5.25 3.015-5.33-1.65-2.413-4.207-2.743-5.106-2.769-2.148-.227-4.231 1.29-5.325 1.29-1.116 0-2.801-1.268-4.617-1.23-2.337.035-4.523 1.393-5.722 3.501-2.475 4.298-.63 10.615 1.742 14.09 1.185 1.702 2.571 3.6 4.385 3.534 1.774-.072 2.437-1.135 4.578-1.135 2.122 0 2.745 1.135 4.594 1.091 1.905-.028 3.104-1.708 4.248-3.426 1.37-1.948 1.92-3.871 1.943-3.97-.044-.014-3.698-1.413-3.735-5.646M27.957 6c-1.381.062-3.109.959-4.104 2.13-.88 1.032-1.666 2.724-1.463 4.315 1.552.116 3.145-.786 4.14-1.965.955-1.197 1.608-2.826 1.427-4.48z" fill="#FFF" style="border-bottom-color:rgb(235, 235, 235);border-left-color:rgb(235, 235, 235);border-right-color:rgb(235, 235, 235);border-top-color:rgb(235, 235, 235);color:rgb(235, 235, 235);cursor:pointer;font-weight:400;height:auto;outline-color:rgb(235, 235, 235);overflow:visible;overflow-x:visible;overflow-y:visible;perspective-origin:80px 21.5px;text-align:center;text-decoration-color:rgb(235, 235, 235);text-emphasis-color:rgb(235, 235, 235);transform-origin:0px 0px;width:auto;-moz-column-rule-color:rgb(235, 235, 235);-webkit-text-fill-color:rgb(235, 235, 235);-webkit-text-stroke-color:rgb(235, 235, 235);fill:rgb(255, 255, 255);fill-rule:evenodd;"/></g></svg>