<?xml version="1.0" standalone="no"?><!DOCTYPE svg PUBLIC "-//W3C//DTD SVG 1.1//EN" "http://www.w3.org/Graphics/SVG/1.1/DTD/svg11.dtd"><svg class="AppButton__base AppButton__color--black" width="160" height="43" viewBox="0 0 160 43" version="1.1" xmlns="http://www.w3.org/2000/svg" xmlns:xlink="http://www.w3.org/1999/xlink" style="cursor:pointer;font-weight:400;height:43px;perspective-origin:80px 21.5px;text-align:center;transform:matrix(1, 0, 0, 1, 0, 0);transform-origin:80px 21.5px;transition-duration:0.25s;width:160px;"><title style="border-bottom-color:rgb(235, 235, 235);border-left-color:rgb(235, 235, 235);border-right-color:rgb(235, 235, 235);border-top-color:rgb(235, 235, 235);color:rgb(235, 235, 235);cursor:pointer;font-weight:400;height:auto;outline-color:rgb(235, 235, 235);overflow:visible;overflow-x:visible;overflow-y:visible;perspective-origin:50% 50%;text-align:center;text-decoration-color:rgb(235, 235, 235);text-emphasis-color:rgb(235, 235, 235);transform-origin:0px 0px;width:auto;-moz-column-rule-color:rgb(235, 235, 235);-webkit-text-fill-color:rgb(235, 235, 235);-webkit-text-stroke-color:rgb(235, 235, 235);">app-windows</title><g fill="none" fill-rule="evenodd" style="border-bottom-color:rgb(235, 235, 235);border-left-color:rgb(235, 235, 235);border-right-color:rgb(235, 235, 235);border-top-color:rgb(235, 235, 235);color:rgb(235, 235, 235);cursor:pointer;font-weight:400;height:auto;outline-color:rgb(235, 235, 235);overflow:visible;overflow-x:visible;overflow-y:visible;perspective-origin:80px 21.5px;text-align:center;text-decoration-color:rgb(235, 235, 235);text-emphasis-color:rgb(235, 235, 235);transform-origin:0px 0px;width:auto;-moz-column-rule-color:rgb(235, 235, 235);-webkit-text-fill-color:rgb(235, 235, 235);-webkit-text-stroke-color:rgb(235, 235, 235);fill:none;fill-rule:evenodd;"><path d="M155.288 42.06H4.396c-2.33 0-4.22-1.919-4.22-4.284V4.343C.176 1.977 2.065.06 4.396.06h150.891c2.331 0 4.221 1.918 4.221 4.283v33.434c0 2.365-1.89 4.283-4.22 4.283z" fill="#000" style="border-bottom-color:rgb(235, 235, 235);border-left-color:rgb(235, 235, 235);border-right-color:rgb(235, 235, 235);border-top-color:rgb(235, 235, 235);color:rgb(235, 235, 235);cursor:pointer;font-weight:400;height:auto;outline-color:rgb(235, 235, 235);overflow:visible;overflow-x:visible;overflow-y:visible;perspective-origin:80px 21.5px;text-align:center;text-decoration-color:rgb(235, 235, 235);text-emphasis-color:rgb(235, 235, 235);transform-origin:0px 0px;width:auto;-moz-column-rule-color:rgb(235, 235, 235);-webkit-text-fill-color:rgb(235, 235, 235);-webkit-text-stroke-color:rgb(235, 235, 235);fill-rule:evenodd;"/><path d="M38.54 12.693v.64h4.544v-.64h-3.64l3.544-4.432v-.64h-4.176v.64h3.28l-3.552 4.432zm6.128-5.072v5.712h-.76V7.621h.76zm.784-1.864l-1.128 1.296h-.512l.768-1.296h.872zm3.8 3.536h.72a2.014 2.014 0 0 0-.18-.812 1.582 1.582 0 0 0-.448-.564 1.876 1.876 0 0 0-.66-.328 3.052 3.052 0 0 0-.816-.104 2.93 2.93 0 0 0-.764.1 2.1 2.1 0 0 0-.664.304c-.195.136-.35.31-.468.52-.117.211-.176.46-.176.748 0 .262.052.479.156.652.104.174.243.315.416.424.173.11.37.198.588.264.219.067.441.126.668.176l.668.148c.219.048.415.111.588.188.173.078.312.178.416.3a.717.717 0 0 1 .156.48.934.934 0 0 1-.128.512.932.932 0 0 1-.336.316 1.52 1.52 0 0 1-.468.164 2.837 2.837 0 0 1-.516.048c-.213 0-.421-.026-.624-.08a1.553 1.553 0 0 1-.532-.248 1.273 1.273 0 0 1-.368-.428 1.29 1.29 0 0 1-.14-.62h-.72c0 .347.063.647.188.9.125.254.296.462.512.624.216.163.467.284.752.364a3.473 3.473 0 0 0 1.696.028 2.28 2.28 0 0 0 .716-.296c.213-.136.388-.312.524-.528.136-.216.204-.476.204-.78 0-.282-.052-.517-.156-.704a1.39 1.39 0 0 0-.416-.464 2.203 2.203 0 0 0-.588-.292 7.976 7.976 0 0 0-.668-.188c-.227-.053-.45-.102-.668-.148a3.498 3.498 0 0 1-.588-.172 1.157 1.157 0 0 1-.416-.268.595.595 0 0 1-.156-.428c0-.186.036-.342.108-.468a.84.84 0 0 1 .288-.3c.12-.074.257-.128.412-.16.155-.032.312-.048.472-.048.395 0 .719.092.972.276.253.184.401.482.444.892zm1.88-1.672v5.712h.76v-2l.952-.888 2.064 2.888h.96l-2.504-3.408 2.408-2.304h-.984l-2.896 2.848V7.621h-.76zm6.32 3.352l.968-2.664h.016l.952 2.664h-1.936zm.568-3.352l-2.224 5.712h.776l.64-1.72h2.416l.624 1.72h.84L58.86 7.621h-.84zm4.192.64v5.072h.76V8.261h1.904v-.64h-4.568v.64h1.904zm5.072 4.432v.64h4.544v-.64h-3.64l3.544-4.432v-.64h-4.176v.64h3.28l-3.552 4.432zm-17.085 20.64l3.31-12.376h-1.646l-2.514 10.296h-.034l-2.739-10.296h-1.785l-2.774 10.296h-.034l-2.427-10.296h-1.681l3.172 12.376h1.716l2.86-10.4h.034l2.826 10.4h1.716zm6.188-10.573v-1.803h-1.474v1.803h1.474zm-1.474 1.612v8.961h1.474v-8.961h-1.474zm3.762 0v8.961h1.473v-5.061c0-.404.055-.777.165-1.118.11-.34.274-.638.494-.893.22-.254.494-.45.823-.589.33-.139.72-.208 1.17-.208.566 0 1.011.162 1.335.485.323.324.485.763.485 1.318v6.066h1.473V27.44c0-.485-.049-.927-.147-1.326a2.511 2.511 0 0 0-.511-1.031 2.422 2.422 0 0 0-.954-.676c-.393-.162-.884-.243-1.473-.243-1.329 0-2.3.543-2.912 1.63h-.035v-1.422h-1.386zm10.712 4.559c0-.44.046-.867.138-1.283.093-.416.243-.786.451-1.11.208-.323.485-.583.832-.78.347-.196.768-.294 1.265-.294.509 0 .942.095 1.3.286.359.19.65.442.876.754.225.312.39.673.494 1.083a5.209 5.209 0 0 1 .008 2.505 3.225 3.225 0 0 1-.476 1.083c-.22.318-.503.575-.85.772-.346.196-.768.294-1.265.294-.474 0-.887-.092-1.24-.277a2.463 2.463 0 0 1-.866-.745 3.298 3.298 0 0 1-.503-1.066 4.582 4.582 0 0 1-.164-1.222zm6.933 4.402V20.957h-1.473v4.611h-.035a2.373 2.373 0 0 0-.598-.667 3.397 3.397 0 0 0-.754-.434 3.785 3.785 0 0 0-.797-.234 4.364 4.364 0 0 0-.746-.069c-.681 0-1.28.124-1.794.373a3.683 3.683 0 0 0-1.282 1.005 4.254 4.254 0 0 0-.763 1.482 6.322 6.322 0 0 0-.251 1.803 6.1 6.1 0 0 0 .26 1.802c.173.567.43 1.063.771 1.491.34.428.768.768 1.283 1.023.514.254 1.118.381 1.811.381a4.36 4.36 0 0 0 1.716-.33c.52-.219.901-.577 1.144-1.074h.035v1.213h1.473zm3.345-4.472c0-.543.073-1.025.217-1.447.144-.422.344-.777.598-1.066.254-.289.552-.508.893-.659.34-.15.702-.225 1.083-.225s.742.075 1.083.225c.341.15.639.37.893.659.254.289.454.644.598 1.066.144.422.217.904.217 1.447s-.073 1.026-.217 1.448a3.028 3.028 0 0 1-.598 1.057c-.254.283-.552.5-.893.65-.34.15-.702.225-1.083.225s-.742-.075-1.083-.225a2.595 2.595 0 0 1-.893-.65 3.028 3.028 0 0 1-.598-1.057 4.458 4.458 0 0 1-.217-1.448zm-1.56 0c0 .659.093 1.271.278 1.838.185.566.462 1.06.832 1.482.37.421.826.75 1.369.988.543.237 1.167.355 1.872.355.716 0 1.343-.118 1.88-.355a3.845 3.845 0 0 0 1.361-.988c.37-.422.647-.916.832-1.482a5.887 5.887 0 0 0 .278-1.838c0-.658-.093-1.274-.278-1.846a4.182 4.182 0 0 0-.832-1.49 3.94 3.94 0 0 0-1.36-.997c-.538-.243-1.165-.364-1.881-.364-.705 0-1.329.121-1.872.364a3.92 3.92 0 0 0-1.37.997 4.17 4.17 0 0 0-.831 1.49 5.968 5.968 0 0 0-.278 1.846zm19.31 4.472l2.86-8.961h-1.526l-2.01 7.332h-.035l-1.872-7.332H93.22l-1.803 7.332h-.034l-2.028-7.332h-1.63l2.878 8.961h1.594L94 26.21h.035l1.82 7.124h1.56zm5.165-2.825h-1.473c.023.555.138 1.026.346 1.413.208.387.486.699.832.936.347.237.746.407 1.196.511.451.104.925.156 1.422.156.45 0 .904-.043 1.36-.13a3.69 3.69 0 0 0 1.231-.46c.364-.219.659-.508.884-.866.225-.358.338-.809.338-1.352 0-.428-.084-.786-.251-1.075a2.244 2.244 0 0 0-.659-.719 3.532 3.532 0 0 0-.936-.46 11.063 11.063 0 0 0-1.083-.294 81.31 81.31 0 0 0-1.04-.234 6 6 0 0 1-.936-.277 2.145 2.145 0 0 1-.685-.416.83.83 0 0 1-.269-.633c0-.231.058-.419.174-.563a1.24 1.24 0 0 1 .45-.347c.185-.087.39-.147.616-.182a4.33 4.33 0 0 1 .667-.052c.243 0 .482.026.72.078.236.052.453.136.65.251.196.116.358.269.485.46.127.19.202.43.225.719h1.473c-.034-.543-.15-.997-.346-1.36a2.332 2.332 0 0 0-.789-.867 3.248 3.248 0 0 0-1.135-.451 7.076 7.076 0 0 0-1.404-.13c-.393 0-.789.05-1.188.147a3.581 3.581 0 0 0-1.074.451 2.48 2.48 0 0 0-.78.789c-.203.323-.304.71-.304 1.161 0 .578.145 1.028.434 1.352.289.324.65.575 1.083.754.433.18.904.318 1.413.416.508.098.979.208 1.412.33.434.12.795.28 1.084.476.289.196.433.485.433.867 0 .277-.07.505-.208.684-.139.18-.315.315-.529.408a2.669 2.669 0 0 1-.702.19 5.394 5.394 0 0 1-.728.052c-.3 0-.592-.029-.875-.086a2.456 2.456 0 0 1-.763-.286 1.568 1.568 0 0 1-.546-.538 1.659 1.659 0 0 1-.225-.823zm19.985-5.928h1.56c-.023-.682-.153-1.268-.39-1.76a3.428 3.428 0 0 0-.97-1.221 4.004 4.004 0 0 0-1.43-.711 6.613 6.613 0 0 0-1.768-.225c-.567 0-1.118.072-1.656.216a4.551 4.551 0 0 0-1.438.659c-.422.295-.76.67-1.014 1.127-.255.456-.382.996-.382 1.62 0 .567.113 1.037.338 1.413.226.376.526.682.902.919.375.237.8.427 1.274.572.473.144.956.271 1.447.381.491.11.974.217 1.447.32.474.105.899.24 1.274.408.376.168.676.384.902.65.225.266.338.612.338 1.04 0 .45-.093.82-.278 1.11a2.018 2.018 0 0 1-.728.684c-.3.168-.638.286-1.014.355-.375.07-.748.104-1.118.104a5.29 5.29 0 0 1-1.352-.173 3.364 3.364 0 0 1-1.152-.537 2.758 2.758 0 0 1-.798-.928c-.202-.375-.303-.823-.303-1.343h-1.56c0 .751.136 1.401.407 1.95.272.549.642 1 1.11 1.352a4.859 4.859 0 0 0 1.629.789 7.524 7.524 0 0 0 3.675.06 4.94 4.94 0 0 0 1.551-.641c.462-.295.84-.676 1.135-1.144.295-.468.442-1.031.442-1.69 0-.612-.112-1.12-.338-1.525a3.011 3.011 0 0 0-.901-1.006 4.774 4.774 0 0 0-1.274-.632 17.28 17.28 0 0 0-1.447-.408 55.603 55.603 0 0 0-1.448-.32 7.579 7.579 0 0 1-1.274-.373c-.375-.15-.676-.344-.901-.58-.225-.238-.338-.547-.338-.928 0-.404.078-.742.234-1.014a1.82 1.82 0 0 1 .624-.65c.26-.162.558-.277.893-.347a5.056 5.056 0 0 1 1.022-.104c.855 0 1.557.2 2.106.598.55.399.87 1.043.962 1.933zm5.876-.208v-2.687h-1.473v2.687h-1.525v1.3h1.525v5.703c0 .416.04.75.121 1.005.081.254.205.45.373.59.168.138.387.233.659.285.271.052.598.078.979.078h1.127v-1.3h-.676c-.231 0-.42-.008-.564-.026a.728.728 0 0 1-.338-.112.428.428 0 0 1-.164-.243 1.608 1.608 0 0 1-.044-.416v-5.564h1.786v-1.3h-1.786zm4.49 4.49c0-.544.072-1.026.216-1.448.145-.422.344-.777.598-1.066.255-.289.552-.508.893-.659.34-.15.702-.225 1.083-.225.382 0 .743.075 1.084.225.34.15.638.37.892.659.255.289.454.644.598 1.066.145.422.217.904.217 1.447s-.072 1.026-.217 1.448a3.028 3.028 0 0 1-.598 1.057c-.254.283-.551.5-.892.65-.341.15-.702.225-1.084.225a2.66 2.66 0 0 1-1.083-.225 2.595 2.595 0 0 1-.893-.65 3.028 3.028 0 0 1-.598-1.057 4.458 4.458 0 0 1-.216-1.448zm-1.56 0c0 .658.092 1.27.277 1.837.185.566.462 1.06.832 1.482.37.421.826.75 1.37.988.542.237 1.166.355 1.871.355.717 0 1.344-.118 1.881-.355.537-.237.99-.567 1.36-.988.37-.422.648-.916.833-1.482a5.887 5.887 0 0 0 .277-1.838c0-.658-.092-1.274-.277-1.846a4.182 4.182 0 0 0-.832-1.49 3.94 3.94 0 0 0-1.361-.997c-.537-.243-1.164-.364-1.88-.364-.706 0-1.33.121-1.873.364a3.92 3.92 0 0 0-1.369.997c-.37.421-.647.918-.832 1.49a5.968 5.968 0 0 0-.277 1.846zm10.382-4.49v8.961h1.474v-3.986a6.1 6.1 0 0 1 .173-1.534c.116-.445.3-.824.555-1.136a2.367 2.367 0 0 1 1.005-.71c.416-.162.919-.243 1.508-.243v-1.56c-.797-.023-1.456.139-1.976.485-.52.347-.96.884-1.317 1.612h-.035v-1.889h-1.387zm11.735 3.623h-5.148c.023-.347.098-.673.225-.98.127-.306.3-.575.52-.806.22-.23.483-.413.789-.546.306-.133.65-.199 1.031-.199a2.52 2.52 0 0 1 1.812.737c.225.225.404.494.537.806.133.312.21.641.234.988zm1.421 2.496h-1.456c-.127.589-.39 1.028-.788 1.317-.399.289-.91.433-1.534.433-.486 0-.907-.08-1.266-.242a2.48 2.48 0 0 1-.884-.65 2.532 2.532 0 0 1-.502-.936 3.557 3.557 0 0 1-.139-1.118h6.708a7.134 7.134 0 0 0-.147-1.716 4.967 4.967 0 0 0-.659-1.664 3.925 3.925 0 0 0-1.265-1.257c-.526-.33-1.188-.494-1.985-.494-.612 0-1.176.116-1.69.347-.514.23-.96.554-1.335.97a4.474 4.474 0 0 0-.875 1.474 5.392 5.392 0 0 0-.312 1.872c.023.681.124 1.311.303 1.889.18.578.448 1.075.806 1.49.359.417.8.74 1.326.971.526.231 1.147.347 1.864.347 1.017 0 1.86-.254 2.53-.763.67-.508 1.104-1.265 1.3-2.27z" fill="#FFF" style="border-bottom-color:rgb(235, 235, 235);border-left-color:rgb(235, 235, 235);border-right-color:rgb(235, 235, 235);border-top-color:rgb(235, 235, 235);color:rgb(235, 235, 235);cursor:pointer;font-weight:400;height:auto;outline-color:rgb(235, 235, 235);overflow:visible;overflow-x:visible;overflow-y:visible;perspective-origin:80px 21.5px;text-align:center;text-decoration-color:rgb(235, 235, 235);text-emphasis-color:rgb(235, 235, 235);transform-origin:0px 0px;width:auto;-moz-column-rule-color:rgb(235, 235, 235);-webkit-text-fill-color:rgb(235, 235, 235);-webkit-text-stroke-color:rgb(235, 235, 235);fill:rgb(255, 255, 255);fill-rule:evenodd;"/><path d="M27.41 12.319l-20.06 4.01v14.59l20.06 4.013 4.01-1.46V13.777l-4.01-1.458zM16.157 27.9l-4.495-.627v-3.761h4.495V27.9zm0-4.723h-4.495V19.62l4.495-.627v4.183zm6.124 5.58l-5.791-.824v-4.422h5.791v5.246zm0-5.58H16.49v-4.218l5.791-.821v5.039z" fill="#FFF" style="border-bottom-color:rgb(235, 235, 235);border-left-color:rgb(235, 235, 235);border-right-color:rgb(235, 235, 235);border-top-color:rgb(235, 235, 235);color:rgb(235, 235, 235);cursor:pointer;font-weight:400;height:auto;outline-color:rgb(235, 235, 235);overflow:visible;overflow-x:visible;overflow-y:visible;perspective-origin:80px 21.5px;text-align:center;text-decoration-color:rgb(235, 235, 235);text-emphasis-color:rgb(235, 235, 235);transform-origin:0px 0px;width:auto;-moz-column-rule-color:rgb(235, 235, 235);-webkit-text-fill-color:rgb(235, 235, 235);-webkit-text-stroke-color:rgb(235, 235, 235);fill:rgb(255, 255, 255);fill-rule:evenodd;"/><g fill="#FFF" style="border-bottom-color:rgb(235, 235, 235);border-left-color:rgb(235, 235, 235);border-right-color:rgb(235, 235, 235);border-top-color:rgb(235, 235, 235);color:rgb(235, 235, 235);cursor:pointer;font-weight:400;height:auto;outline-color:rgb(235, 235, 235);overflow:visible;overflow-x:visible;overflow-y:visible;perspective-origin:80px 21.5px;text-align:center;text-decoration-color:rgb(235, 235, 235);text-emphasis-color:rgb(235, 235, 235);transform-origin:0px 0px;width:auto;-moz-column-rule-color:rgb(235, 235, 235);-webkit-text-fill-color:rgb(235, 235, 235);-webkit-text-stroke-color:rgb(235, 235, 235);fill:rgb(255, 255, 255);fill-rule:evenodd;"><path d="M18.938 9.32c-1.215.427-2.105.792-2.105 3.118v1.117l.728-.147v-.964c-.018-1.577.392-1.907 1.456-2.367a3.86 3.86 0 0 0-.079-.758v.001zm2.12-.499c.05.226.087.471.113.734 1.904-.274 1.869.512 1.869 2.153v.605l.721-.148v-.457c0-2.548-.398-3.23-2.703-2.887z" style="border-bottom-color:rgb(235, 235, 235);border-left-color:rgb(235, 235, 235);border-right-color:rgb(235, 235, 235);border-top-color:rgb(235, 235, 235);color:rgb(235, 235, 235);cursor:pointer;font-weight:400;height:auto;outline-color:rgb(235, 235, 235);overflow:visible;overflow-x:visible;overflow-y:visible;perspective-origin:80px 21.5px;text-align:center;text-decoration-color:rgb(235, 235, 235);text-emphasis-color:rgb(235, 235, 235);transform-origin:0px 0px;width:auto;-moz-column-rule-color:rgb(235, 235, 235);-webkit-text-fill-color:rgb(235, 235, 235);-webkit-text-stroke-color:rgb(235, 235, 235);fill:rgb(255, 255, 255);fill-rule:evenodd;"/><path d="M13.55 14.212v-3.351c-.024-2.078 1.05-2.714 3.027-3.176 2.982-.699 3.172 1.222 3.172 2.445v2.84l.73-.145v-2.632c-.007-2.313-.729-4.046-4.046-3.294-1.786.404-3.613.86-3.613 3.893v3.565l.73-.144v-.001z" style="border-bottom-color:rgb(235, 235, 235);border-left-color:rgb(235, 235, 235);border-right-color:rgb(235, 235, 235);border-top-color:rgb(235, 235, 235);color:rgb(235, 235, 235);cursor:pointer;font-weight:400;height:auto;outline-color:rgb(235, 235, 235);overflow:visible;overflow-x:visible;overflow-y:visible;perspective-origin:80px 21.5px;text-align:center;text-decoration-color:rgb(235, 235, 235);text-emphasis-color:rgb(235, 235, 235);transform-origin:0px 0px;width:auto;-moz-column-rule-color:rgb(235, 235, 235);-webkit-text-fill-color:rgb(235, 235, 235);-webkit-text-stroke-color:rgb(235, 235, 235);fill:rgb(255, 255, 255);fill-rule:evenodd;"/></g></g></svg>