<?xml version="1.0" encoding="utf-8"?>
<!-- Generator: Adobe Illustrator 16.0.0, SVG Export Plug-In . SVG Version: 6.00 Build 0)  -->
<!DOCTYPE svg PUBLIC "-//W3C//DTD SVG 1.1//EN" "http://www.w3.org/Graphics/SVG/1.1/DTD/svg11.dtd">
<svg version="1.1" id="Vrstva_1" xmlns="http://www.w3.org/2000/svg" xmlns:xlink="http://www.w3.org/1999/xlink" x="0px" y="0px"
	 viewBox="0 0 45.22 58.66" enable-background="new 0 0 45.22 58.66" xml:space="preserve">
<path fill="#1D1D1B" d="M7.39,25.36c-0.69-0.54-1.05-1.35-1.05-2.16l0,0c0-0.59,0.19-1.19,0.59-1.69l0,0l7.26-9.31
	c0.48-0.77,1.34-1.29,2.32-1.29h1c0,0,13.21,0,13.27,0.01l0,0c0,0,0.79,0.04,1.72,0.66l0,0c1.49,1.04,2.29,2.72,2.29,4.41l0,0
	c0,1.06-0.31,2.14-0.96,3.08l0,0l-7.18,10.5l-0.63-0.48l0,0c-2.41-1.85-5.3-3.1-8.45-3.52l0,0l-1.21-0.16l6.22-8.99h-4.71l-6.62,8.5
	c-0.54,0.68-1.35,1.05-2.16,1.05l0,0C8.5,25.95,7.9,25.75,7.39,25.36L7.39,25.36 M8.4,24.8 M39.39,52.24c0.02,0,0.07,0.01,0.15,0.01
	l0,0c0.08,0,0.13-0.01,0.15-0.01h2.79l0,0c1.52,0,2.75-1.23,2.75-2.75l0,0c0-1.35-0.97-2.47-2.26-2.71V33.02l0,0
	c0-0.25-0.03-0.48-0.08-0.71l0,0c-0.31-1.57-1.7-2.75-3.36-2.75H26.66l1.26,1.28l0,0c1.46,1.48,2.65,3.22,3.53,5.14l0.2,0.44h4.46
	v12.41l0,0c0,1.03,0.47,1.96,1.18,2.57l0,0c0.44,0.49,1.16,0.85,1.97,0.85H39.39L39.39,52.24z M30.19,43.56
	c0,8.32-6.77,15.1-15.09,15.1S0,51.88,0,43.56s6.77-15.1,15.1-15.1S30.19,35.24,30.19,43.56z M32.86,5.13
	c0,2.83,2.29,5.12,5.12,5.12l0,0c2.83,0,5.12-2.29,5.13-5.12l0,0c0-2.83-2.3-5.12-5.13-5.13l0,0C35.15,0,32.86,2.3,32.86,5.13
	L32.86,5.13z"/>
</svg>
