<?xml version="1.0" encoding="utf-8"?>
<!-- Generator: Adobe Illustrator 16.0.0, SVG Export Plug-In . SVG Version: 6.00 Build 0)  -->
<!DOCTYPE svg PUBLIC "-//W3C//DTD SVG 1.1//EN" "http://www.w3.org/Graphics/SVG/1.1/DTD/svg11.dtd">
<svg version="1.1" id="Vrstva_1" xmlns="http://www.w3.org/2000/svg" xmlns:xlink="http://www.w3.org/1999/xlink" x="0px" y="0px"
	viewBox="0 0 55.51 58.71" enable-background="new 0 0 55.51 58.71" xml:space="preserve">
<g>
	<path d="M32.54,17.85V0h3.48c10.77,0,19.49,8.73,19.49,19.49c0,10.77-8.72,19.49-19.49,19.49H19.49C8.73,38.99,0,30.26,0,19.49
		c0-0.55,0.03-1.1,0.08-1.64H32.54z"/>
	<path d="M34.95,51.3c0,4.1,3.32,7.42,7.42,7.42c4.09,0,7.41-3.32,7.41-7.42c0-4.09-3.32-7.41-7.41-7.41
		C38.27,43.88,34.95,47.2,34.95,51.3L34.95,51.3z"/>
	<path d="M6.34,51.3c0,4.1,3.32,7.42,7.42,7.42c4.09,0,7.41-3.32,7.41-7.42c0-4.09-3.32-7.41-7.41-7.41
		C9.67,43.88,6.34,47.2,6.34,51.3L6.34,51.3z"/>
</g>
</svg>
