<?xml version="1.0" encoding="utf-8"?>
<!-- Generator: Adobe Illustrator 16.0.0, SVG Export Plug-In . SVG Version: 6.00 Build 0)  -->
<!DOCTYPE svg PUBLIC "-//W3C//DTD SVG 1.1//EN" "http://www.w3.org/Graphics/SVG/1.1/DTD/svg11.dtd">
<svg version="1.1" id="Vrstva_1" xmlns="http://www.w3.org/2000/svg" xmlns:xlink="http://www.w3.org/1999/xlink" x="0px" y="0px"
	  viewBox="0 0 58.83 58.75" enable-background="new 0 0 58.83 58.75" xml:space="preserve">
<path fill="#1D1D1B" d="M48.75,0H10.08C4.52,0,0,4.52,0,10.08s4.52,10.08,10.08,10.08h3.23v32.92c0,3.13,2.54,5.67,5.67,5.67h11.47
	V20.16v-5.2V9.44H13.31v5.52h-3.23c-2.69,0-4.88-2.19-4.88-4.88S7.39,5.2,10.08,5.2h38.67c2.69,0,4.88,2.19,4.88,4.88
	s-2.19,4.88-4.88,4.88h-3.52V9.44h-7.41v49.31h1.74c3.13,0,5.67-2.54,5.67-5.67V20.16h3.52c5.56,0,10.08-4.52,10.08-10.08
	S54.31,0,48.75,0z"/>
</svg>
