<?xml version="1.0" encoding="utf-8"?>
<!-- Generator: Adobe Illustrator 16.0.0, SVG Export Plug-In . SVG Version: 6.00 Build 0)  -->
<!DOCTYPE svg PUBLIC "-//W3C//DTD SVG 1.1//EN" "http://www.w3.org/Graphics/SVG/1.1/DTD/svg11.dtd">
<svg version="1.1" id="Layer_1" xmlns="http://www.w3.org/2000/svg" xmlns:xlink="http://www.w3.org/1999/xlink" x="0px" y="0px"
	  viewBox="0 0 35.5 35.46" enable-background="new 0 0 35.5 35.46" xml:space="preserve">
<g>
	<path d="M35.29,28.8l-5.89-5.89c1.06-1.54,1.68-3.41,1.68-5.41c0-3.5-1.89-6.56-4.7-8.23c0-0.02,0.01-0.03,0.01-0.05V0.72
		c0-0.4-0.32-0.72-0.72-0.72H3.78c-0.4,0-0.72,0.32-0.72,0.72v33.3H0.72c-0.4,0-0.72,0.32-0.72,0.72s0.32,0.72,0.72,0.72h29.46
		c0.4,0,0.72-0.32,0.72-0.72s-0.32-0.72-0.72-0.72h-3.78v-7.27l5.48,5.48c0.13,0.14,0.32,0.21,0.51,0.21s0.37-0.08,0.51-0.21
		l2.4-2.4C35.57,29.54,35.57,29.08,35.29,28.8z M29.65,17.49c0,4.49-3.65,8.14-8.14,8.14s-8.14-3.65-8.14-8.14
		c0-4.49,3.65-8.14,8.14-8.14S29.65,13,29.65,17.49z M16.02,34.02h-2.6v-5.17h2.6V34.02z M17.46,34.02v-5.89
		c0-0.4-0.32-0.72-0.72-0.72h-4.04c-0.4,0-0.72,0.32-0.72,0.72v5.89H4.5V1.44h20.46v7.12c-1.07-0.42-2.23-0.65-3.45-0.65
		c-5.28,0-9.58,4.3-9.58,9.58c0,5.28,4.3,9.58,9.58,9.58c1.22,0,2.38-0.24,3.45-0.65v7.59H17.46z M32.38,30.69l-5.14-5.14l1.41-1.36
		l5.12,5.12L32.38,30.69z"/>
	<path d="M20.78,11.69c0,0.4,0.32,0.72,0.72,0.72c2.8,0,5.09,2.28,5.09,5.08c0,0.4,0.32,0.72,0.72,0.72s0.72-0.32,0.72-0.72
		c0-3.6-2.93-6.53-6.53-6.53C21.11,10.97,20.78,11.29,20.78,11.69z"/>
	<path d="M8.77,4.01c-0.4,0-0.72,0.32-0.72,0.72v1.76c0,0.4,0.32,0.72,0.72,0.72s0.72-0.32,0.72-0.72V4.73
		C9.49,4.34,9.17,4.01,8.77,4.01z"/>
	<path d="M14.73,7.21c0.4,0,0.72-0.32,0.72-0.72V4.73c0-0.4-0.32-0.72-0.72-0.72s-0.72,0.32-0.72,0.72v1.76
		C14.01,6.89,14.33,7.21,14.73,7.21z"/>
	<path d="M20.68,7.21c0.4,0,0.72-0.32,0.72-0.72V4.73c0-0.4-0.32-0.72-0.72-0.72s-0.72,0.32-0.72,0.72v1.76
		C19.96,6.89,20.28,7.21,20.68,7.21z"/>
	<path d="M8.77,9.94c-0.4,0-0.72,0.32-0.72,0.72v1.76c0,0.4,0.32,0.72,0.72,0.72s0.72-0.32,0.72-0.72v-1.76
		C9.49,10.27,9.17,9.94,8.77,9.94z"/>
	<path d="M8.77,15.87c-0.4,0-0.72,0.32-0.72,0.72v1.76c0,0.4,0.32,0.72,0.72,0.72s0.72-0.32,0.72-0.72v-1.76
		C9.49,16.2,9.17,15.87,8.77,15.87z"/>
	<path d="M8.77,21.81c-0.4,0-0.72,0.32-0.72,0.72v1.76c0,0.4,0.32,0.72,0.72,0.72s0.72-0.32,0.72-0.72v-1.76
		C9.49,22.13,9.17,21.81,8.77,21.81z"/>
	<path d="M8.77,27.74c-0.4,0-0.72,0.32-0.72,0.72v1.76c0,0.4,0.32,0.72,0.72,0.72s0.72-0.32,0.72-0.72v-1.76
		C9.49,28.06,9.17,27.74,8.77,27.74z"/>
	<path d="M20.68,27.74c-0.4,0-0.72,0.32-0.72,0.72v1.76c0,0.4,0.32,0.72,0.72,0.72s0.72-0.32,0.72-0.72v-1.76
		C21.4,28.06,21.08,27.74,20.68,27.74z"/>
</g>
</svg>
