<?xml version="1.0" encoding="utf-8"?>
<!-- Generator: Adobe Illustrator 16.0.0, SVG Export Plug-In . SVG Version: 6.00 Build 0)  -->
<!DOCTYPE svg PUBLIC "-//W3C//DTD SVG 1.1//EN" "http://www.w3.org/Graphics/SVG/1.1/DTD/svg11.dtd">
<svg version="1.1" id="Layer_1" xmlns="http://www.w3.org/2000/svg" xmlns:xlink="http://www.w3.org/1999/xlink" x="0px" y="0px"
	 width="34.22px" height="36.07px" viewBox="0 0 34.22 36.07" enable-background="new 0 0 34.22 36.07" xml:space="preserve">
<g>
	<path d="M33.5,34.63h-2.13c0.04-0.09,0.06-0.18,0.06-0.28V6.5c0-0.4-0.32-0.72-0.72-0.72h-6.48V0.72C24.22,0.32,23.9,0,23.5,0H3.51
		c-0.4,0-0.72,0.32-0.72,0.72v33.91H0.72c-0.4,0-0.72,0.32-0.72,0.72s0.32,0.72,0.72,0.72H33.5c0.4,0,0.72-0.32,0.72-0.72
		S33.9,34.63,33.5,34.63z M29.99,7.22v27.13c0,0.1,0.02,0.19,0.06,0.28h-5.82V7.22H29.99z M4.23,1.44h18.55v33.19h-6.71v-6.01
		c0-0.4-0.32-0.72-0.72-0.72h-3.68c-0.4,0-0.72,0.32-0.72,0.72v6.01H4.23V1.44z M14.63,34.63h-2.24v-5.29h2.24V34.63z"/>
	<path d="M8.07,4.09c-0.4,0-0.72,0.32-0.72,0.72V6.6c0,0.4,0.32,0.72,0.72,0.72S8.79,6.99,8.79,6.6V4.81
		C8.79,4.41,8.47,4.09,8.07,4.09z"/>
	<path d="M13.51,7.32c0.4,0,0.72-0.32,0.72-0.72V4.81c0-0.4-0.32-0.72-0.72-0.72s-0.72,0.32-0.72,0.72V6.6
		C12.79,6.99,13.11,7.32,13.51,7.32z"/>
	<path d="M18.94,7.32c0.4,0,0.72-0.32,0.72-0.72V4.81c0-0.4-0.32-0.72-0.72-0.72s-0.72,0.32-0.72,0.72V6.6
		C18.22,6.99,18.54,7.32,18.94,7.32z"/>
	<path d="M8.07,10.12c-0.4,0-0.72,0.32-0.72,0.72v1.79c0,0.4,0.32,0.72,0.72,0.72s0.72-0.32,0.72-0.72v-1.79
		C8.79,10.45,8.47,10.12,8.07,10.12z"/>
	<path d="M13.51,13.35c0.4,0,0.72-0.32,0.72-0.72v-1.79c0-0.4-0.32-0.72-0.72-0.72s-0.72,0.32-0.72,0.72v1.79
		C12.79,13.03,13.11,13.35,13.51,13.35z"/>
	<path d="M18.94,13.35c0.4,0,0.72-0.32,0.72-0.72v-1.79c0-0.4-0.32-0.72-0.72-0.72s-0.72,0.32-0.72,0.72v1.79
		C18.22,13.03,18.54,13.35,18.94,13.35z"/>
	<path d="M8.07,16.16c-0.4,0-0.72,0.32-0.72,0.72v1.79c0,0.4,0.32,0.72,0.72,0.72s0.72-0.32,0.72-0.72v-1.79
		C8.79,16.48,8.47,16.16,8.07,16.16z"/>
	<path d="M13.51,19.39c0.4,0,0.72-0.32,0.72-0.72v-1.79c0-0.4-0.32-0.72-0.72-0.72s-0.72,0.32-0.72,0.72v1.79
		C12.79,19.07,13.11,19.39,13.51,19.39z"/>
	<path d="M18.94,19.39c0.4,0,0.72-0.32,0.72-0.72v-1.79c0-0.4-0.32-0.72-0.72-0.72s-0.72,0.32-0.72,0.72v1.79
		C18.22,19.07,18.54,19.39,18.94,19.39z"/>
	<path d="M8.07,22.2c-0.4,0-0.72,0.32-0.72,0.72v1.79c0,0.4,0.32,0.72,0.72,0.72s0.72-0.32,0.72-0.72v-1.79
		C8.79,22.52,8.47,22.2,8.07,22.2z"/>
	<path d="M13.51,25.43c0.4,0,0.72-0.32,0.72-0.72v-1.79c0-0.4-0.32-0.72-0.72-0.72s-0.72,0.32-0.72,0.72v1.79
		C12.79,25.11,13.11,25.43,13.51,25.43z"/>
	<path d="M18.94,25.43c0.4,0,0.72-0.32,0.72-0.72v-1.79c0-0.4-0.32-0.72-0.72-0.72s-0.72,0.32-0.72,0.72v1.79
		C18.22,25.11,18.54,25.43,18.94,25.43z"/>
	<path d="M8.07,28.23c-0.4,0-0.72,0.32-0.72,0.72v1.79c0,0.4,0.32,0.72,0.72,0.72s0.72-0.32,0.72-0.72v-1.79
		C8.79,28.56,8.47,28.23,8.07,28.23z"/>
	<path d="M18.94,31.46c0.4,0,0.72-0.32,0.72-0.72v-1.79c0-0.4-0.32-0.72-0.72-0.72s-0.72,0.32-0.72,0.72v1.79
		C18.22,31.14,18.54,31.46,18.94,31.46z"/>
	<path d="M26.98,13.35c0.4,0,0.72-0.32,0.72-0.72v-1.79c0-0.4-0.32-0.72-0.72-0.72s-0.72,0.32-0.72,0.72v1.79
		C26.26,13.03,26.58,13.35,26.98,13.35z"/>
	<path d="M26.98,19.39c0.4,0,0.72-0.32,0.72-0.72v-1.79c0-0.4-0.32-0.72-0.72-0.72s-0.72,0.32-0.72,0.72v1.79
		C26.26,19.07,26.58,19.39,26.98,19.39z"/>
	<path d="M26.98,25.43c0.4,0,0.72-0.32,0.72-0.72v-1.79c0-0.4-0.32-0.72-0.72-0.72s-0.72,0.32-0.72,0.72v1.79
		C26.26,25.11,26.58,25.43,26.98,25.43z"/>
	<path d="M26.98,31.46c0.4,0,0.72-0.32,0.72-0.72v-1.79c0-0.4-0.32-0.72-0.72-0.72s-0.72,0.32-0.72,0.72v1.79
		C26.26,31.14,26.58,31.46,26.98,31.46z"/>
</g>
</svg>
