<?xml version="1.0" encoding="utf-8"?>
<!-- Generator: Adobe Illustrator 16.0.0, SVG Export Plug-In . SVG Version: 6.00 Build 0)  -->
<!DOCTYPE svg PUBLIC "-//W3C//DTD SVG 1.1//EN" "http://www.w3.org/Graphics/SVG/1.1/DTD/svg11.dtd">
<svg version="1.1" id="Layer_1" xmlns="http://www.w3.org/2000/svg" xmlns:xlink="http://www.w3.org/1999/xlink" x="0px" y="0px"
	 width="39.82px" height="28.63px" viewBox="0 0 39.82 28.63" enable-background="new 0 0 39.82 28.63" xml:space="preserve">
<path d="M39.65,26.92c-0.01-0.01-0.02-0.02-0.03-0.03c-0.01-0.01-0.01-0.03-0.02-0.04l-4.7-5.31c0.44-0.41,0.71-1,0.71-1.64V2.27
	c0-1.25-1.02-2.27-2.27-2.27H6.48C5.22,0,4.21,1.02,4.21,2.27V19.9c0,0.65,0.28,1.24,0.72,1.65l-4.69,5.3
	c-0.24,0.28-0.3,0.66-0.15,0.99c0.22,0.49,0.82,0.78,1.27,0.78h37.13c0.48,0,1.01-0.31,1.23-0.72
	C39.88,27.58,39.86,27.21,39.65,26.92z M5.65,2.27c0-0.46,0.37-0.83,0.83-0.83h26.86c0.46,0,0.83,0.37,0.83,0.83V19.9
	c0,0.46-0.37,0.83-0.83,0.83H6.48c-0.46,0-0.83-0.37-0.83-0.83V2.27z M6.32,22.16c0.05,0,0.1,0.02,0.16,0.02h26.86
	c0.06,0,0.12-0.01,0.17-0.02l4.46,5.03L1.88,27.16L6.32,22.16z M7.25,19.59h25.33c0.4,0,0.72-0.32,0.72-0.72V3.21
	c0-0.4-0.32-0.72-0.72-0.72H7.25c-0.4,0-0.72,0.32-0.72,0.72v15.65C6.53,19.26,6.85,19.59,7.25,19.59z M7.97,3.93h23.89v14.21H7.97
	V3.93z M22.72,6.86c0.33,0.23,0.41,0.68,0.18,1l-4.8,6.9c-0.14,0.2-0.36,0.31-0.59,0.31c-0.14,0-0.29-0.04-0.41-0.13
	c-0.33-0.23-0.41-0.68-0.18-1l4.8-6.9C21.95,6.71,22.39,6.63,22.72,6.86z"/>
</svg>
