<?xml version="1.0" encoding="utf-8"?>
<!-- Generator: Adobe Illustrator 16.0.0, SVG Export Plug-In . SVG Version: 6.00 Build 0)  -->
<!DOCTYPE svg PUBLIC "-//W3C//DTD SVG 1.1//EN" "http://www.w3.org/Graphics/SVG/1.1/DTD/svg11.dtd">
<svg version="1.1" id="Layer_1" xmlns="http://www.w3.org/2000/svg" xmlns:xlink="http://www.w3.org/1999/xlink" x="0px" y="0px"
	 width="35.71px" height="33.63px" viewBox="0 0 35.71 33.63" enable-background="new 0 0 35.71 33.63" xml:space="preserve">
<path d="M5.13,21.91c-1.72,0-3.11,1.4-3.11,3.11s1.4,3.11,3.11,3.11s3.11-1.4,3.11-3.11S6.84,21.91,5.13,21.91z M5.13,26.69
	c-0.92,0-1.67-0.75-1.67-1.67s0.75-1.67,1.67-1.67S6.8,24.1,6.8,25.02S6.05,26.69,5.13,26.69z M3.05,18.8h4.16
	c0.4,0,0.72-0.32,0.72-0.72V4c0-0.4-0.32-0.72-0.72-0.72H3.05C2.65,3.28,2.33,3.6,2.33,4v14.07C2.33,18.47,2.65,18.8,3.05,18.8z
	 M3.77,4.72h2.72v12.63H3.77V4.72z M14.07,21.91c-1.72,0-3.11,1.4-3.11,3.11s1.4,3.11,3.11,3.11s3.11-1.4,3.11-3.11
	S15.79,21.91,14.07,21.91z M14.07,26.69c-0.92,0-1.67-0.75-1.67-1.67s0.75-1.67,1.67-1.67s1.67,0.75,1.67,1.67
	S14.99,26.69,14.07,26.69z M11.99,18.8h4.16c0.4,0,0.72-0.32,0.72-0.72V4c0-0.4-0.32-0.72-0.72-0.72h-4.16
	c-0.4,0-0.72,0.32-0.72,0.72v14.07C11.27,18.47,11.59,18.8,11.99,18.8z M12.71,4.72h2.72v12.63h-2.72V4.72z M35.64,29.64L28.06,1.34
	c-0.25-0.94-1.27-1.53-2.22-1.28l-6.4,1.71c-0.13,0.03-0.24,0.08-0.36,0.14c-0.25-0.7-0.91-1.2-1.7-1.2h-6.63
	c-0.44,0-0.84,0.17-1.16,0.43C9.28,0.88,8.88,0.72,8.44,0.72H1.81C0.81,0.72,0,1.53,0,2.53v29.29c0,1,0.81,1.81,1.81,1.81h6.63
	c0.44,0,0.84-0.17,1.16-0.43c0.31,0.26,0.72,0.43,1.16,0.43h6.63c1,0,1.81-0.81,1.81-1.81V7.87l6.54,24.42
	c0.21,0.79,0.93,1.34,1.75,1.34c0.16,0,0.31-0.02,0.47-0.06l6.4-1.72c0.47-0.12,0.86-0.42,1.1-0.84
	C35.7,30.59,35.77,30.1,35.64,29.64z M8.81,31.82c0,0.2-0.17,0.37-0.37,0.37H1.81c-0.2,0-0.37-0.17-0.37-0.37V2.53
	c0-0.2,0.17-0.37,0.37-0.37h6.63c0.2,0,0.37,0.17,0.37,0.37V31.82z M17.76,31.82c0,0.2-0.17,0.37-0.37,0.37h-6.63
	c-0.2,0-0.37-0.17-0.37-0.37V2.53c0-0.2,0.17-0.37,0.37-0.37h6.63c0.2,0,0.37,0.17,0.37,0.37V31.82z M34.21,30.29
	c-0.03,0.05-0.1,0.14-0.23,0.17l-6.4,1.72c-0.19,0.05-0.4-0.07-0.46-0.26L19.55,3.62c-0.03-0.13,0.01-0.23,0.04-0.28
	c0.03-0.05,0.1-0.14,0.22-0.17l6.5-1.73c0.17,0,0.32,0.12,0.36,0.28l7.58,28.29C34.29,30.14,34.24,30.24,34.21,30.29z M28.93,21.28
	c-0.27,0-0.54,0.04-0.81,0.11c-1.66,0.45-2.64,2.15-2.2,3.81c0.36,1.36,1.6,2.31,3,2.31c0.27,0,0.54-0.04,0.81-0.11
	c1.66-0.44,2.64-2.15,2.2-3.81C31.57,22.23,30.34,21.28,28.93,21.28z M29.36,26.01c-0.88,0.23-1.81-0.31-2.05-1.18
	c-0.24-0.89,0.29-1.81,1.18-2.05c0.14-0.04,0.29-0.06,0.43-0.06c0.75,0,1.42,0.51,1.61,1.24C30.79,24.85,30.25,25.77,29.36,26.01z
	 M29.84,16.96L26.2,3.37c-0.05-0.18-0.17-0.34-0.33-0.44c-0.17-0.1-0.36-0.12-0.55-0.07L21.3,3.94c-0.38,0.1-0.61,0.5-0.51,0.88
	l3.64,13.6c0.05,0.18,0.17,0.34,0.33,0.44c0.11,0.06,0.24,0.1,0.36,0.1c0.06,0,0.12-0.01,0.19-0.02l4.02-1.08
	C29.71,17.74,29.94,17.35,29.84,16.96z M25.63,17.34l-3.27-12.2l2.63-0.7l3.27,12.2L25.63,17.34z"/>
</svg>
