<?xml version="1.0" encoding="utf-8"?>
<!-- Generator: Adobe Illustrator 16.0.0, SVG Export Plug-In . SVG Version: 6.00 Build 0)  -->
<!DOCTYPE svg PUBLIC "-//W3C//DTD SVG 1.1//EN" "http://www.w3.org/Graphics/SVG/1.1/DTD/svg11.dtd">
<svg version="1.1" id="Vrstva_1" xmlns="http://www.w3.org/2000/svg" xmlns:xlink="http://www.w3.org/1999/xlink" x="0px" y="0px"
	  viewBox="0 0 58.21 50.19" enable-background="new 0 0 58.21 50.19" xml:space="preserve">
<g>
	<path d="M54.61,16.85l-51-0.03c-1.99,0-3.6-1.61-3.6-3.6C0.01,11.24,3.09-0.01,29.15,0c26.06,0.01,29.06,11.27,29.06,13.26
		C58.21,15.24,56.6,16.86,54.61,16.85z"/>
	<path d="M3.6,33.33l51,0.03c1.99,0,3.6,1.61,3.6,3.6c0,1.99-3.08,13.24-29.14,13.22C3,50.17,0,38.92,0,36.93
		C0,34.94,1.61,33.33,3.6,33.33z"/>
	<path d="M4.9,23.97c0.17,0.27,4.13,6.53,11.65,6.53c4.03,0,6.28-1.84,7.92-3.18c1.35-1.1,2.26-1.83,4.11-1.88
		c1.85,0.05,2.77,0.78,4.11,1.88c1.64,1.34,3.89,3.18,7.92,3.19c7.52,0,11.49-6.25,11.66-6.52c0.82-1.32,0.41-3.04-0.9-3.87
		c-1.31-0.83-3.05-0.44-3.89,0.87c-0.1,0.16-2.54,3.87-6.87,3.87c-2.01,0-2.94-0.76-4.34-1.91c-1.7-1.39-3.81-3.11-7.69-3.16
		c-3.88,0.05-6,1.77-7.69,3.16c-1.4,1.14-2.33,1.9-4.34,1.9c-4.33,0-6.76-3.72-6.86-3.88c-0.84-1.31-2.58-1.7-3.89-0.88
		C4.49,20.93,4.09,22.65,4.9,23.97"/>
</g>
</svg>
