<?xml version="1.0" encoding="utf-8"?>
<!-- Generator: Adobe Illustrator 16.0.0, SVG Export Plug-In . SVG Version: 6.00 Build 0)  -->
<!DOCTYPE svg PUBLIC "-//W3C//DTD SVG 1.1//EN" "http://www.w3.org/Graphics/SVG/1.1/DTD/svg11.dtd">
<svg version="1.1" id="Layer_1" xmlns="http://www.w3.org/2000/svg" xmlns:xlink="http://www.w3.org/1999/xlink" x="0px" y="0px"
	viewBox="0 0 34.32 34.27" enable-background="new 0 0 34.32 34.27" xml:space="preserve">
<path d="M19.68,14.09c0-0.8,0.65-1.45,1.45-1.45s1.45,0.65,1.45,1.45s-0.65,1.45-1.45,1.45S19.68,14.89,19.68,14.09z M13.22,15.55
	c0.8,0,1.45-0.65,1.45-1.45s-0.65-1.45-1.45-1.45s-1.45,0.65-1.45,1.45S12.41,15.55,13.22,15.55z M22.23,20.51
	c0.11-0.38-0.12-0.78-0.5-0.89c-0.39-0.11-0.78,0.12-0.89,0.5c-0.37,1.31-1.92,2.27-3.68,2.27s-3.32-0.95-3.68-2.27
	c-0.11-0.38-0.51-0.61-0.89-0.5c-0.38,0.11-0.61,0.51-0.5,0.89c0.55,1.95,2.63,3.32,5.07,3.32C19.6,23.83,21.68,22.46,22.23,20.51z
	 M29.26,21.75c-0.23,2.65-1.55,5.54-3.43,7.42c-1.31,1.31-3.28,2.22-5.71,2.67c-0.28,1.38-1.5,2.43-2.96,2.43
	c-1.66,0-3.02-1.35-3.02-3.02c0-1.66,1.35-3.02,3.02-3.02c1.37,0,2.51,0.92,2.88,2.16c1.56-0.3,3.47-0.94,4.77-2.24
	c1.8-1.8,3.06-4.78,3.06-7.23v-9.48c0-1.23-0.31-2.53-0.87-3.75c-1.68,0.83-3.53,1.29-5.41,1.29c-3.02,0-5.86-1.08-8.09-3.07
	c-1.63,2.52-4.11,4.34-7,5.13c-0.01,0.13-0.02,0.27-0.02,0.4v9.48c0,0.35-0.26,0.63-0.59,0.69c-0.13,0.11-0.29,0.18-0.46,0.18
	c-0.02,0-0.04,0-0.06,0C2.36,21.56,0,18.87,0,15.67c0-3.15,2.29-5.81,5.24-6.1c0.44-2.2,1.61-4.42,3.28-6.08
	C10.67,1.33,13.72,0,16.48,0h1.39c2.76,0,5.81,1.33,7.96,3.48c1.67,1.67,2.84,3.88,3.28,6.09c2.94,0.31,5.21,2.96,5.21,6.1
	C34.32,18.76,32.12,21.36,29.26,21.75z M18.74,31.25c0-0.87-0.71-1.58-1.58-1.58c-0.87,0-1.58,0.71-1.58,1.58
	c0,0.87,0.71,1.58,1.58,1.58C18.03,32.83,18.74,32.12,18.74,31.25z M5.04,20.27v-8.83c0-0.13,0.02-0.25,0.02-0.38
	C3,11.44,1.44,13.37,1.44,15.67C1.44,17.96,2.99,19.88,5.04,20.27z M26.32,6.42c-0.43-0.69-0.93-1.35-1.51-1.92
	c-1.89-1.89-4.55-3.06-6.94-3.06h-1.39c-2.4,0-5.06,1.17-6.94,3.06C8.16,5.88,7.17,7.67,6.73,9.47c2.54-0.87,4.68-2.65,5.98-5.05
	c0.11-0.2,0.31-0.34,0.54-0.37c0.23-0.03,0.46,0.05,0.62,0.21c2.05,2.11,4.79,3.28,7.73,3.28C23.24,7.54,24.85,7.14,26.32,6.42z
	 M32.88,15.67c0-2.29-1.55-4.21-3.59-4.6c0.01,0.12,0.02,0.25,0.02,0.38v8.83C31.35,19.87,32.88,17.95,32.88,15.67z"/>
</svg>
