<svg xmlns="http://www.w3.org/2000/svg" xmlns:xlink="http://www.w3.org/1999/xlink" x="0px" y="0px"
	viewBox="0 0 22.38 35.37" enable-background="new 0 0 22.38 35.37" xml:space="preserve">
<path d="M18.93,35.37H3.42C1.53,35.37,0,33.83,0,31.95V3.42C0,1.53,1.53,0,3.42,0h15.31c0.85,0,2.03,0.18,2.84,1.01
	c0.57,0.59,0.84,1.39,0.81,2.37l-0.03,0.94c0,0.02,0,0.05,0,0.08v27.55C22.35,33.83,20.81,35.37,18.93,35.37z M1.44,28.6v3.35
	c0,1.09,0.89,1.97,1.97,1.97h15.52c1.09,0,1.98-0.89,1.98-1.97V28.6H1.44z M1.44,27.16h19.47V5.4H1.51c-0.02,0-0.04,0-0.06,0V27.16z
	 M3.42,1.44c-1.09,0-1.97,0.89-1.97,1.98v0.54c0.02,0,0.04,0,0.06,0h19.41l0.02-0.62c0.02-0.59-0.11-1.02-0.41-1.32
	c-0.48-0.5-1.34-0.57-1.8-0.57H3.42z M12.87,31.82H9.48c-0.4,0-0.72-0.32-0.72-0.72s0.32-0.72,0.72-0.72h3.39
	c0.4,0,0.72,0.32,0.72,0.72S13.27,31.82,12.87,31.82z"/>
</svg>
