<?xml version="1.0" encoding="utf-8"?>
<!-- Generator: Adobe Illustrator 16.0.0, SVG Export Plug-In . SVG Version: 6.00 Build 0)  -->
<!DOCTYPE svg PUBLIC "-//W3C//DTD SVG 1.1//EN" "http://www.w3.org/Graphics/SVG/1.1/DTD/svg11.dtd">
<svg version="1.1" id="Layer_1" xmlns="http://www.w3.org/2000/svg" xmlns:xlink="http://www.w3.org/1999/xlink" x="0px" y="0px"
	viewBox="0 0 18 27" enable-background="new 0 0 18 27" xml:space="preserve">
<path d="M15.54,11.86V6.96c0-3.6-2.94-6.54-6.54-6.54c-3.61,0-6.55,2.93-6.55,6.54v4.91C1.1,11.86,0,12.96,0,14.32v9.81
	c0,1.35,1.1,2.46,2.45,2.46h13.09c1.35,0,2.46-1.1,2.46-2.46v-9.81C18,12.96,16.9,11.86,15.54,11.86 M4.09,6.96
	c0-2.7,2.2-4.9,4.91-4.9c2.71,0,4.91,2.2,4.91,4.9v4.91H4.09V6.96z M16.36,24.13c0,0.45-0.37,0.82-0.82,0.82H2.45
	c-0.45,0-0.81-0.37-0.81-0.82v-9.81c0-0.45,0.37-0.82,0.81-0.82h13.09c0.45,0,0.82,0.37,0.82,0.82V24.13z M9.82,18.63v-1.86
	c0-0.45-0.37-0.82-0.82-0.82s-0.82,0.37-0.82,0.82v1.86c-0.49,0.28-0.82,0.81-0.82,1.41c0,0.9,0.73,1.64,1.64,1.64
	s1.63-0.73,1.63-1.64C10.63,19.44,10.31,18.91,9.82,18.63"/>
</svg>
