<?xml version="1.0" encoding="utf-8"?>
<!-- Generator: Adobe Illustrator 16.0.0, SVG Export Plug-In . SVG Version: 6.00 Build 0)  -->
<!DOCTYPE svg PUBLIC "-//W3C//DTD SVG 1.1//EN" "http://www.w3.org/Graphics/SVG/1.1/DTD/svg11.dtd">
<svg version="1.1" id="Layer_1" xmlns="http://www.w3.org/2000/svg" xmlns:xlink="http://www.w3.org/1999/xlink" x="0px" y="0px"
	 viewBox="0 0 39.82 28.63" enable-background="new 0 0 39.82 28.63" xml:space="preserve">
<path d="M9.96,8.76C9.7,8.51,9.7,8.11,9.94,7.85c0.25-0.25,0.65-0.26,0.9-0.02l1.25,1.21l2.25-3.18c0.2-0.29,0.6-0.36,0.89-0.15
	c0.29,0.2,0.36,0.6,0.15,0.89l-2.68,3.79c-0.11,0.15-0.28,0.25-0.46,0.27c-0.02,0-0.04,0-0.06,0c-0.16,0-0.32-0.06-0.44-0.18
	L9.96,8.76z M14.34,11.54l-2.25,3.18l-1.25-1.21c-0.25-0.25-0.66-0.24-0.9,0.02c-0.25,0.25-0.24,0.66,0.02,0.9l1.78,1.73
	c0.12,0.12,0.28,0.18,0.44,0.18c0.02,0,0.04,0,0.06,0c0.19-0.02,0.35-0.11,0.46-0.27l2.68-3.79c0.2-0.29,0.13-0.69-0.15-0.89
	C14.94,11.18,14.54,11.25,14.34,11.54z M39.71,27.91c-0.21,0.41-0.74,0.72-1.23,0.72H1.35c-0.45,0-1.04-0.29-1.27-0.78
	c-0.15-0.34-0.1-0.72,0.15-0.99l4.69-5.3c-0.44-0.41-0.72-1-0.72-1.65V2.27C4.21,1.02,5.22,0,6.48,0h26.86
	c1.25,0,2.27,1.02,2.27,2.27V19.9c0,0.65-0.28,1.23-0.71,1.64l4.7,5.31c0.01,0.01,0.01,0.03,0.02,0.04
	c0.01,0.01,0.02,0.02,0.03,0.03C39.86,27.21,39.88,27.58,39.71,27.91z M5.65,19.9c0,0.46,0.37,0.83,0.83,0.83h26.86
	c0.46,0,0.83-0.37,0.83-0.83V2.27c0-0.46-0.37-0.83-0.83-0.83H6.48c-0.46,0-0.83,0.37-0.83,0.83V19.9z M1.88,27.16l36.09,0.02
	l-4.46-5.03c-0.06,0-0.12,0.02-0.17,0.02H6.48c-0.05,0-0.1-0.01-0.16-0.02L1.88,27.16z M17.46,8.77h11.19
	c0.35,0,0.64-0.29,0.64-0.64S29,7.49,28.65,7.49H17.46c-0.35,0-0.64,0.29-0.64,0.64S17.11,8.77,17.46,8.77z M17.46,14.44h11.19
	c0.35,0,0.64-0.29,0.64-0.64s-0.29-0.64-0.64-0.64H17.46c-0.35,0-0.64,0.29-0.64,0.64S17.11,14.44,17.46,14.44z"/>
</svg>
