<?xml version="1.0" encoding="utf-8"?>
<!-- Generator: Adobe Illustrator 16.0.0, SVG Export Plug-In . SVG Version: 6.00 Build 0)  -->
<!DOCTYPE svg PUBLIC "-//W3C//DTD SVG 1.1//EN" "http://www.w3.org/Graphics/SVG/1.1/DTD/svg11.dtd">
<svg version="1.1" id="Layer_1" xmlns="http://www.w3.org/2000/svg" xmlns:xlink="http://www.w3.org/1999/xlink" x="0px" y="0px"
	  viewBox="0 0 34.93 29.71" enable-background="new 0 0 34.93 29.71" xml:space="preserve">
<path d="M24.27,18.33c0-3.76-3.06-6.81-6.81-6.81s-6.81,3.06-6.81,6.81c0,3.76,3.06,6.81,6.81,6.81S24.27,22.08,24.27,18.33z
	 M12.09,18.33c0-2.96,2.41-5.37,5.37-5.37s5.37,2.41,5.37,5.37c0,2.96-2.41,5.37-5.37,5.37S12.09,21.29,12.09,18.33z M17.44,0
	C9.1,0.29,0.09,2.73,0,7.45C0.01,7.63,0.03,7.81,0.05,8l0.52,3.52c0.13,0.9,0.92,1.59,1.86,1.6c0.09,0,0.18-0.01,0.25-0.02
	l6.04-0.89c1.03-0.15,1.74-1.11,1.58-2.13c-0.08-0.58-0.19-1.07-0.27-1.5C9.9,7.86,9.78,7.29,9.92,7.09
	c0.28-0.41,2.02-0.74,2.68-0.87c2.1-0.4,4.49-0.51,4.88-0.51c0.35,0,2.74,0.11,4.84,0.51c0.66,0.12,2.41,0.46,2.68,0.87
	c0.14,0.2,0.02,0.77-0.13,1.49c-0.09,0.43-0.19,0.92-0.27,1.5c-0.15,1.02,0.56,1.98,1.58,2.13l6.03,0.89
	c0.09,0.02,0.18,0.02,0.27,0.02h0.01l0,0c0.91-0.01,1.7-0.7,1.84-1.6L34.87,8c0.03-0.19,0.04-0.37,0.05-0.59
	C34.84,2.73,25.83,0.29,17.44,0z M33.45,7.79l-0.52,3.52c-0.03,0.2-0.2,0.36-0.4,0.37l-6.12-0.9c-0.24-0.04-0.41-0.26-0.37-0.5
	c0.08-0.55,0.18-1.02,0.26-1.42c0.22-1.09,0.38-1.88-0.09-2.58c-0.52-0.77-1.62-1.1-3.61-1.48c-2.23-0.42-4.7-0.53-5.17-0.54
	c-0.39,0-2.87,0.11-5.1,0.54c-1.99,0.38-3.09,0.71-3.61,1.48c-0.47,0.7-0.31,1.49-0.09,2.58c0.08,0.41,0.18,0.87,0.26,1.42
	c0.04,0.24-0.13,0.46-0.37,0.5l-6.09,0.9c-0.21,0-0.4-0.16-0.43-0.38L1.48,7.79C1.46,7.65,1.45,7.52,1.44,7.43
	c0.06-3.05,7.11-5.69,16-5.99c8.94,0.31,15.99,2.94,16.05,5.95C33.48,7.52,33.47,7.66,33.45,7.79z M28.95,14.33
	c1.4,4.29,2.39,7.4,2.39,8.42v2.57c0,2.41-1.75,4.38-3.9,4.38H7.49c-2.15,0-3.9-1.96-3.9-4.38v-2.57c0-0.98,0.9-3.77,2.56-8.58
	c0.13-0.38,0.54-0.58,0.92-0.45c0.38,0.13,0.58,0.54,0.45,0.92c-0.87,2.51-2.48,7.19-2.48,8.11v2.57c0,1.62,1.1,2.94,2.46,2.94
	h19.95c1.36,0,2.46-1.32,2.46-2.94v-2.57c0-0.87-1.4-5.15-2.32-7.98l-0.05-0.14c-0.12-0.38,0.08-0.78,0.46-0.91
	c0.38-0.12,0.78,0.08,0.91,0.46L28.95,14.33z"/>
</svg>
