<?xml version="1.0" encoding="utf-8"?>
<!-- Generator: Adobe Illustrator 16.0.0, SVG Export Plug-In . SVG Version: 6.00 Build 0)  -->
<!DOCTYPE svg PUBLIC "-//W3C//DTD SVG 1.1//EN" "http://www.w3.org/Graphics/SVG/1.1/DTD/svg11.dtd">
<svg version="1.1" id="Layer_1" xmlns="http://www.w3.org/2000/svg" xmlns:xlink="http://www.w3.org/1999/xlink" x="0px" y="0px"
	  viewBox="0 0 33.75 33.75" enable-background="new 0 0 33.75 33.75" xml:space="preserve">
<path d="M28.89,33.75c-0.12,0-0.24-0.02-0.36-0.07c-2.68-1.08-4.99-2.48-6.89-4.15c-1.54,0.4-3.14,0.61-4.77,0.61
	C7.57,30.14,0,23.38,0,15.07C0,6.76,7.57,0,16.88,0c9.31,0,16.88,6.76,16.88,15.07c0,3.98-1.7,7.7-4.8,10.53l0.89,7.07
	c0.04,0.34-0.1,0.67-0.37,0.88C29.31,33.68,29.1,33.75,28.89,33.75z M21.9,27.5c0.24,0,0.48,0.09,0.66,0.26
	c1.44,1.35,3.18,2.51,5.18,3.47l-0.75-5.9c-0.04-0.32,0.08-0.64,0.33-0.85c2.92-2.5,4.52-5.84,4.52-9.42
	c0-7.25-6.71-13.15-14.96-13.15S1.92,7.82,1.92,15.07s6.71,13.15,14.96,13.15c1.62,0,3.22-0.23,4.75-0.68
	C21.72,27.52,21.81,27.5,21.9,27.5z M18.08,17.64c0-1.24,0.51-1.63,1.35-2.28c0.91-0.7,2.15-1.65,2.11-3.75
	c-0.04-2.45-2.15-4.18-5.01-4.18c-2.47,0.02-4.97,1.52-4.97,4.34c0,0.73,0.59,1.32,1.32,1.32s1.32-0.59,1.32-1.32
	c0-1.33,1.48-1.7,2.36-1.7c0.8-0.01,2.33,0.32,2.35,1.59c0.01,0.73-0.27,0.99-1.08,1.61c-0.95,0.73-2.38,1.83-2.38,4.37
	c0,0.73,0.59,1.32,1.32,1.32S18.08,18.37,18.08,17.64z M18.54,22.07c0-0.86-0.7-1.56-1.56-1.56l-0.16,0c-0.9,0-1.58,0.65-1.61,1.51
	c-0.03,0.86,0.65,1.58,1.51,1.61l0.25,0C17.84,23.63,18.54,22.93,18.54,22.07z"/>
</svg>
