<?xml version="1.0" encoding="utf-8"?>
<!-- Generator: Adobe Illustrator 16.0.0, SVG Export Plug-In . SVG Version: 6.00 Build 0)  -->
<!DOCTYPE svg PUBLIC "-//W3C//DTD SVG 1.1//EN" "http://www.w3.org/Graphics/SVG/1.1/DTD/svg11.dtd">
<svg version="1.1" id="Layer_1" xmlns="http://www.w3.org/2000/svg" xmlns:xlink="http://www.w3.org/1999/xlink" x="0px" y="0px"
	  viewBox="0 0 24 24"  xml:space="preserve">
<path d="M23.06,21.95l-5.21-5.21c1.54-1.74,2.51-4,2.51-6.5c0-5.43-4.42-9.85-9.85-9.85c-5.43,0-9.85,4.42-9.85,9.85
	c0,5.43,4.42,9.85,9.85,9.85c2.23,0,4.26-0.77,5.91-2.02l5.26,5.27c0.19,0.19,0.44,0.29,0.69,0.29s0.5-0.09,0.69-0.29
	C23.44,22.95,23.44,22.33,23.06,21.95 M2.61,10.24c0-4.35,3.54-7.89,7.9-7.89c4.35,0,7.89,3.54,7.89,7.89
	c0,4.35-3.54,7.89-7.89,7.89C6.15,18.13,2.61,14.59,2.61,10.24"/>
</svg>
