<?xml version="1.0" encoding="utf-8"?>
<!-- Generated by IcoMoon.io -->
<!DOCTYPE svg PUBLIC "-//W3C//DTD SVG 1.1//EN" "http://www.w3.org/Graphics/SVG/1.1/DTD/svg11.dtd">
<svg version="1.1" xmlns="http://www.w3.org/2000/svg" xmlns:xlink="http://www.w3.org/1999/xlink"  viewBox="0 0 21 24">
<path d="M13.004 16.661v2.826c0 0.603-0.174 0.897-0.522 0.897-0.201 0-0.402-0.094-0.603-0.295v-4.031c0.201-0.201 0.402-0.295 0.603-0.295 0.348 0 0.522 0.308 0.522 0.897zM17.531 16.674v0.616h-1.205v-0.616c0-0.603 0.201-0.911 0.603-0.911s0.603 0.308 0.603 0.911zM4.594 13.754h1.433v-1.259h-4.179v1.259h1.406v7.621h1.339v-7.621zM8.451 21.375h1.192v-6.616h-1.192v5.063c-0.268 0.375-0.522 0.563-0.763 0.563-0.161 0-0.254-0.094-0.281-0.281-0.013-0.040-0.013-0.188-0.013-0.469v-4.875h-1.192v5.237c0 0.469 0.040 0.777 0.107 0.978 0.107 0.335 0.388 0.496 0.777 0.496 0.429 0 0.884-0.268 1.366-0.817v0.723zM14.196 19.393v-2.638c0-0.616-0.027-1.058-0.121-1.326-0.147-0.496-0.482-0.75-0.951-0.75-0.442 0-0.857 0.241-1.246 0.723v-2.906h-1.192v8.879h1.192v-0.643c0.402 0.496 0.817 0.737 1.246 0.737 0.469 0 0.804-0.254 0.951-0.737 0.094-0.281 0.121-0.723 0.121-1.339zM18.723 19.259v-0.174h-1.219c0 0.482-0.013 0.75-0.027 0.817-0.067 0.321-0.241 0.482-0.536 0.482-0.415 0-0.616-0.308-0.616-0.924v-1.165h2.397v-1.379c0-0.71-0.121-1.219-0.362-1.554-0.348-0.455-0.817-0.683-1.42-0.683-0.616 0-1.085 0.228-1.433 0.683-0.254 0.335-0.375 0.844-0.375 1.554v2.317c0 0.71 0.134 1.232 0.388 1.554 0.348 0.455 0.817 0.683 1.446 0.683s1.125-0.241 1.446-0.71c0.147-0.214 0.254-0.455 0.281-0.723 0.027-0.121 0.027-0.388 0.027-0.777zM10.58 7.031v-2.813c0-0.616-0.174-0.924-0.576-0.924-0.388 0-0.576 0.308-0.576 0.924v2.813c0 0.616 0.188 0.938 0.576 0.938 0.402 0 0.576-0.321 0.576-0.938zM20.21 17.089c0 1.54-0.013 3.188-0.348 4.688-0.254 1.058-1.112 1.835-2.143 1.942-2.464 0.281-4.955 0.281-7.433 0.281s-4.969 0-7.433-0.281c-1.031-0.107-1.902-0.884-2.143-1.942-0.348-1.5-0.348-3.147-0.348-4.688v0c0-1.554 0.013-3.188 0.348-4.688 0.254-1.058 1.112-1.835 2.156-1.955 2.451-0.268 4.942-0.268 7.42-0.268s4.969 0 7.433 0.268c1.031 0.121 1.902 0.897 2.143 1.955 0.348 1.5 0.348 3.134 0.348 4.688zM6.844 0h1.366l-1.621 5.344v3.629h-1.339v-3.629c-0.121-0.656-0.388-1.594-0.817-2.839-0.295-0.83-0.589-1.674-0.871-2.504h1.42l0.951 3.522zM11.799 4.46v2.344c0 0.71-0.121 1.246-0.375 1.58-0.335 0.455-0.804 0.683-1.42 0.683-0.603 0-1.071-0.228-1.406-0.683-0.254-0.348-0.375-0.871-0.375-1.58v-2.344c0-0.71 0.121-1.232 0.375-1.567 0.335-0.455 0.804-0.683 1.406-0.683 0.616 0 1.085 0.228 1.42 0.683 0.254 0.335 0.375 0.857 0.375 1.567zM16.286 2.29v6.683h-1.219v-0.737c-0.482 0.563-0.938 0.83-1.379 0.83-0.388 0-0.67-0.161-0.79-0.496-0.067-0.201-0.107-0.522-0.107-1.004v-5.277h1.219v4.915c0 0.281 0 0.442 0.013 0.469 0.027 0.188 0.121 0.295 0.281 0.295 0.241 0 0.496-0.188 0.763-0.576v-5.103h1.219z"></path>
</svg>
