<svg xmlns="http://www.w3.org/2000/svg" width="160" height="43" class="AppButton__base AppButton__color--black" style="cursor:pointer;font-weight:400;height:43px;perspective-origin:80px 21.5px;text-align:center;transform:matrix(1,0,0,1,0,0);transform-origin:80px 21.5px;transition-duration:.25s;width:160px"><defs style="border-color:#ebebeb;color:#ebebeb;cursor:pointer;font-weight:400;height:auto;outline-color:#ebebeb;overflow:visible;overflow-x:visible;overflow-y:visible;perspective-origin:80px 21.5px;text-align:center;text-decoration-color:#ebebeb;text-emphasis-color:#ebebeb;transform-origin:0 0;width:auto;-moz-column-rule-color:#ebebeb;-webkit-text-fill-color:#ebebeb;-webkit-text-stroke-color:#ebebeb"><linearGradient id="a" x1="80.75%" x2="-157.296%" y1="49.999%" y2="49.999%" style="border-color:#ebebeb;color:#ebebeb;cursor:pointer;font-weight:400;height:auto;outline-color:#ebebeb;overflow:visible;overflow-x:visible;overflow-y:visible;perspective-origin:80px 21.5px;text-align:center;text-decoration-color:#ebebeb;text-emphasis-color:#ebebeb;transform-origin:0 0;width:auto;-moz-column-rule-color:#ebebeb;-webkit-text-fill-color:#ebebeb;-webkit-text-stroke-color:#ebebeb"><stop offset="0%" stop-color="#F9E106" style="border-color:#ebebeb;color:#ebebeb;cursor:pointer;font-weight:400;height:auto;outline-color:#ebebeb;overflow:visible;overflow-x:visible;overflow-y:visible;perspective-origin:0 0;text-align:center;text-decoration-color:#ebebeb;text-emphasis-color:#ebebeb;transform-origin:0 0;width:auto;-moz-column-rule-color:#ebebeb;-webkit-text-fill-color:#ebebeb;-webkit-text-stroke-color:#ebebeb;stop-color:#f9e106"/><stop offset="100%" stop-color="#F79011" style="border-color:#ebebeb;color:#ebebeb;cursor:pointer;font-weight:400;height:auto;outline-color:#ebebeb;overflow:visible;overflow-x:visible;overflow-y:visible;perspective-origin:0 0;text-align:center;text-decoration-color:#ebebeb;text-emphasis-color:#ebebeb;transform-origin:0 0;width:auto;-moz-column-rule-color:#ebebeb;-webkit-text-fill-color:#ebebeb;-webkit-text-stroke-color:#ebebeb;stop-color:#f79011"/></linearGradient><linearGradient id="b" x1="62.788%" x2="14.669%" y1="82.154%" y2="-94.809%" style="border-color:#ebebeb;color:#ebebeb;cursor:pointer;font-weight:400;height:auto;outline-color:#ebebeb;overflow:visible;overflow-x:visible;overflow-y:visible;perspective-origin:80px 21.5px;text-align:center;text-decoration-color:#ebebeb;text-emphasis-color:#ebebeb;transform-origin:0 0;width:auto;-moz-column-rule-color:#ebebeb;-webkit-text-fill-color:#ebebeb;-webkit-text-stroke-color:#ebebeb"><stop offset="0%" stop-color="#EF2F41" style="border-color:#ebebeb;color:#ebebeb;cursor:pointer;font-weight:400;height:auto;outline-color:#ebebeb;overflow:visible;overflow-x:visible;overflow-y:visible;perspective-origin:0 0;text-align:center;text-decoration-color:#ebebeb;text-emphasis-color:#ebebeb;transform-origin:0 0;width:auto;-moz-column-rule-color:#ebebeb;-webkit-text-fill-color:#ebebeb;-webkit-text-stroke-color:#ebebeb;stop-color:#ef2f41"/><stop offset="100%" stop-color="#C80D6B" style="border-color:#ebebeb;color:#ebebeb;cursor:pointer;font-weight:400;height:auto;outline-color:#ebebeb;overflow:visible;overflow-x:visible;overflow-y:visible;perspective-origin:0 0;text-align:center;text-decoration-color:#ebebeb;text-emphasis-color:#ebebeb;transform-origin:0 0;width:auto;-moz-column-rule-color:#ebebeb;-webkit-text-fill-color:#ebebeb;-webkit-text-stroke-color:#ebebeb;stop-color:#c80d6b"/></linearGradient><linearGradient id="c" x1="14.457%" x2="53.742%" y1="195.599%" y2="51.113%" style="border-color:#ebebeb;color:#ebebeb;cursor:pointer;font-weight:400;height:auto;outline-color:#ebebeb;overflow:visible;overflow-x:visible;overflow-y:visible;perspective-origin:80px 21.5px;text-align:center;text-decoration-color:#ebebeb;text-emphasis-color:#ebebeb;transform-origin:0 0;width:auto;-moz-column-rule-color:#ebebeb;-webkit-text-fill-color:#ebebeb;-webkit-text-stroke-color:#ebebeb"><stop offset="0%" stop-color="#39A36A" style="border-color:#ebebeb;color:#ebebeb;cursor:pointer;font-weight:400;height:auto;outline-color:#ebebeb;overflow:visible;overflow-x:visible;overflow-y:visible;perspective-origin:0 0;text-align:center;text-decoration-color:#ebebeb;text-emphasis-color:#ebebeb;transform-origin:0 0;width:auto;-moz-column-rule-color:#ebebeb;-webkit-text-fill-color:#ebebeb;-webkit-text-stroke-color:#ebebeb;stop-color:#39a36a"/><stop offset="73.696%" stop-color="#6CC858" style="border-color:#ebebeb;color:#ebebeb;cursor:pointer;font-weight:400;height:auto;outline-color:#ebebeb;overflow:visible;overflow-x:visible;overflow-y:visible;perspective-origin:0 0;text-align:center;text-decoration-color:#ebebeb;text-emphasis-color:#ebebeb;transform-origin:0 0;width:auto;-moz-column-rule-color:#ebebeb;-webkit-text-fill-color:#ebebeb;-webkit-text-stroke-color:#ebebeb;stop-color:#6cc858"/><stop offset="100%" stop-color="#6CC858" style="border-color:#ebebeb;color:#ebebeb;cursor:pointer;font-weight:400;height:auto;outline-color:#ebebeb;overflow:visible;overflow-x:visible;overflow-y:visible;perspective-origin:0 0;text-align:center;text-decoration-color:#ebebeb;text-emphasis-color:#ebebeb;transform-origin:0 0;width:auto;-moz-column-rule-color:#ebebeb;-webkit-text-fill-color:#ebebeb;-webkit-text-stroke-color:#ebebeb;stop-color:#6cc858"/></linearGradient></defs><g fill="none" fill-rule="evenodd" style="border-color:#ebebeb;color:#ebebeb;cursor:pointer;font-weight:400;height:auto;outline-color:#ebebeb;overflow:visible;overflow-x:visible;overflow-y:visible;perspective-origin:80px 21.5px;text-align:center;text-decoration-color:#ebebeb;text-emphasis-color:#ebebeb;transform-origin:0 0;width:auto;-moz-column-rule-color:#ebebeb;-webkit-text-fill-color:#ebebeb;-webkit-text-stroke-color:#ebebeb;fill:none;fill-rule:evenodd"><path fill="#000" d="M6.157 42.255c-3.246 0-5.902-2.362-5.902-5.25v-31.5c0-2.888 2.656-5.25 5.902-5.25h147.53c3.245 0 5.901 2.362 5.901 5.25v31.5c0 2.888-2.656 5.25-5.901 5.25H6.157z" style="border-color:#ebebeb;color:#ebebeb;cursor:pointer;font-weight:400;height:auto;outline-color:#ebebeb;overflow:visible;overflow-x:visible;overflow-y:visible;perspective-origin:80px 21.5px;text-align:center;text-decoration-color:#ebebeb;text-emphasis-color:#ebebeb;transform-origin:0 0;width:auto;-moz-column-rule-color:#ebebeb;-webkit-text-fill-color:#ebebeb;-webkit-text-stroke-color:#ebebeb;fill-rule:evenodd"/><path fill="#FFF" d="M109.391 31.54h1.905V18.78h-1.905v12.76zm17.154-8.163-2.184 5.531h-.065l-2.266-5.531h-2.051l3.398 7.731-1.938 4.3h1.987l5.236-12.031h-2.118.001zm-10.8 6.713c-.625 0-1.494-.312-1.494-1.083 0-.985 1.083-1.363 2.018-1.363.838 0 1.231.18 1.74.427a2.309 2.309 0 0 1-2.264 2.019zm.229-6.993c-1.379 0-2.807.608-3.397 1.954l1.69.706c.361-.706 1.033-.936 1.74-.936.985 0 1.986.591 2.002 1.642v.131c-.345-.197-1.082-.493-1.986-.493-1.822 0-3.677 1.002-3.677 2.873 0 1.707 1.494 2.807 3.168 2.807 1.28 0 1.986-.575 2.43-1.248h.065v.985h1.838v-4.891c0-2.266-1.69-3.53-3.873-3.53zm-11.77 1.832h-2.708v-4.373h2.709c1.424 0 2.232 1.18 2.232 2.187 0 .989-.808 2.186-2.232 2.186h-.001zm-.048-6.148h-4.563v12.758h1.903v-4.834h2.66c2.11 0 4.185-1.528 4.185-3.962s-2.074-3.962-4.185-3.962zM79.273 30.092c-1.316 0-2.417-1.101-2.417-2.614 0-1.529 1.101-2.647 2.417-2.647 1.299 0 2.318 1.118 2.318 2.647 0 1.513-1.019 2.614-2.318 2.614zm2.187-6.001h-.066c-.427-.51-1.25-.97-2.285-.97-2.171 0-4.16 1.907-4.16 4.357 0 2.433 1.989 4.324 4.16 4.324 1.035 0 1.858-.46 2.285-.987h.066v.626c0 1.66-.888 2.548-2.318 2.548-1.167 0-1.891-.838-2.187-1.546l-1.66.691c.476 1.151 1.742 2.565 3.846 2.565 2.237 0 4.127-1.316 4.127-4.522v-7.793H81.46v.707zm3.124 7.448h1.907V18.78h-1.907v12.76-.001zm4.719-4.209c-.05-1.677 1.298-2.532 2.268-2.532.758 0 1.398.378 1.612.921l-3.88 1.611zm5.919-1.447c-.361-.97-1.464-2.762-3.716-2.762-2.236 0-4.094 1.76-4.094 4.34 0 2.434 1.841 4.341 4.307 4.341 1.99 0 3.142-1.217 3.618-1.923l-1.48-.987c-.493.723-1.167 1.2-2.138 1.2-.97 0-1.66-.444-2.104-1.315l5.804-2.4-.197-.494zm-46.24-1.43v1.841h4.406c-.132 1.036-.477 1.792-1.003 2.319-.642.641-1.644 1.348-3.404 1.348-2.713 0-4.833-2.187-4.833-4.9 0-2.713 2.12-4.9 4.833-4.9 1.464 0 2.532.576 3.322 1.316l1.298-1.299c-1.101-1.053-2.564-1.858-4.62-1.858-3.716 0-6.84 3.025-6.84 6.741 0 3.716 3.124 6.741 6.84 6.741 2.007 0 3.519-.657 4.702-1.89 1.217-1.217 1.596-2.927 1.596-4.308a6.047 6.047 0 0 0-.099-1.151h-6.199.001zm11.306 5.64c-1.315 0-2.45-1.086-2.45-2.632 0-1.562 1.135-2.63 2.45-2.63 1.315 0 2.45 1.068 2.45 2.63 0 1.546-1.135 2.631-2.45 2.631v.001zm0-6.972c-2.4 0-4.357 1.825-4.357 4.34 0 2.5 1.956 4.341 4.357 4.341 2.4 0 4.357-1.841 4.357-4.34 0-2.516-1.956-4.341-4.357-4.341zm9.505 6.971c-1.315 0-2.45-1.085-2.45-2.63 0-1.563 1.135-2.631 2.45-2.631 1.315 0 2.45 1.068 2.45 2.63 0 1.546-1.135 2.631-2.45 2.631zm0-6.971c-2.401 0-4.357 1.825-4.357 4.34 0 2.5 1.956 4.341 4.357 4.341 2.4 0 4.357-1.841 4.357-4.34 0-2.516-1.957-4.341-4.357-4.341z" style="border-color:#ebebeb;color:#ebebeb;cursor:pointer;font-weight:400;height:auto;outline-color:#ebebeb;overflow:visible;overflow-x:visible;overflow-y:visible;perspective-origin:80px 21.5px;text-align:center;text-decoration-color:#ebebeb;text-emphasis-color:#ebebeb;transform-origin:0 0;width:auto;-moz-column-rule-color:#ebebeb;-webkit-text-fill-color:#ebebeb;-webkit-text-stroke-color:#ebebeb;fill:#fff;fill-rule:evenodd"/><path fill="#72D0F5" d="M10.905 8.625c-.297.313-.472.8-.472 1.432V32.61c0 .632.175 1.119.472 1.434l.076.073 12.633-12.633v-.299L10.981 8.551l-.076.073" style="border-color:#ebebeb;color:#ebebeb;cursor:pointer;font-weight:400;height:auto;outline-color:#ebebeb;overflow:visible;overflow-x:visible;overflow-y:visible;perspective-origin:80px 21.5px;text-align:center;text-decoration-color:#ebebeb;text-emphasis-color:#ebebeb;transform-origin:0 0;width:auto;-moz-column-rule-color:#ebebeb;-webkit-text-fill-color:#ebebeb;-webkit-text-stroke-color:#ebebeb;fill:#72d0f5;fill-rule:evenodd"/><path fill="url(#a)" d="m27.824 16.971-4.21 4.213v.298l4.211 4.213.096-.055 4.989-2.835c1.425-.81 1.425-2.134 0-2.944l-4.99-2.835-.096-.055" style="border-color:#ebebeb;color:#ebebeb;cursor:pointer;font-weight:400;height:auto;outline-color:#ebebeb;overflow:visible;overflow-x:visible;overflow-y:visible;perspective-origin:80px 21.5px;text-align:center;text-decoration-color:#ebebeb;text-emphasis-color:#ebebeb;transform-origin:0 0;width:auto;-moz-column-rule-color:#ebebeb;-webkit-text-fill-color:#ebebeb;-webkit-text-stroke-color:#ebebeb;fill:url(https://www.airbank.cz/#a)transparent;fill-rule:evenodd" transform="matrix(1 0 0 -1 0 42.666)"/><path fill="url(#b)" d="m27.92 30.139-4.306 4.307-12.709-12.707c.47-.498 1.246-.56 2.119-.062l14.896 8.462" style="border-color:#ebebeb;color:#ebebeb;cursor:pointer;font-weight:400;height:auto;outline-color:#ebebeb;overflow:visible;overflow-x:visible;overflow-y:visible;perspective-origin:80px 21.5px;text-align:center;text-decoration-color:#ebebeb;text-emphasis-color:#ebebeb;transform-origin:0 0;width:auto;-moz-column-rule-color:#ebebeb;-webkit-text-fill-color:#ebebeb;-webkit-text-stroke-color:#ebebeb;fill:url(https://www.airbank.cz/#b)transparent;fill-rule:evenodd" transform="matrix(1 0 0 -1 0 55.779)"/><path d="m27.92 30.14-4.306 4.307L10.905 21.74c.47-.498 1.246-.56 2.119-.062L27.92 30.14" style="border-color:#ebebeb;color:#ebebeb;cursor:pointer;font-weight:400;height:auto;outline-color:#ebebeb;overflow:visible;overflow-x:visible;overflow-y:visible;perspective-origin:80px 21.5px;text-align:center;text-decoration-color:#ebebeb;text-emphasis-color:#ebebeb;transform-origin:0 0;width:auto;-moz-column-rule-color:#ebebeb;-webkit-text-fill-color:#ebebeb;-webkit-text-stroke-color:#ebebeb;fill:none;fill-rule:evenodd"/><path fill="url(#c)" d="M28.587 12.527 13.691 20.99c-.874.496-1.649.434-2.119-.063L24.28 8.22l4.307 4.307" style="border-color:#ebebeb;color:#ebebeb;cursor:pointer;font-weight:400;height:auto;outline-color:#ebebeb;overflow:visible;overflow-x:visible;overflow-y:visible;perspective-origin:80px 21.5px;text-align:center;text-decoration-color:#ebebeb;text-emphasis-color:#ebebeb;transform-origin:0 0;width:auto;-moz-column-rule-color:#ebebeb;-webkit-text-fill-color:#ebebeb;-webkit-text-stroke-color:#ebebeb;fill:url(https://www.airbank.cz/#c)transparent;fill-rule:evenodd" transform="matrix(1 0 0 -1 0 29.553)"/><path d="M13.691 20.99c-.874.496-1.649.435-2.119-.063L24.28 8.22l4.307 4.307-14.896 8.463z" style="border-color:#ebebeb;color:#ebebeb;cursor:pointer;font-weight:400;height:auto;outline-color:#ebebeb;overflow:visible;overflow-x:visible;overflow-y:visible;perspective-origin:80px 21.5px;text-align:center;text-decoration-color:#ebebeb;text-emphasis-color:#ebebeb;transform-origin:0 0;width:auto;-moz-column-rule-color:#ebebeb;-webkit-text-fill-color:#ebebeb;-webkit-text-stroke-color:#ebebeb;fill:none;fill-rule:evenodd"/><path fill="#FFF" d="M42.454 14.19V8.065h.959l2.976 4.763h.033l-.033-1.18V8.067h.786v6.123h-.82L43.24 9.195h-.034l.034 1.181v3.814h-.787" style="border-color:#ebebeb;color:#ebebeb;cursor:pointer;font-weight:400;height:auto;outline-color:#ebebeb;overflow:visible;overflow-x:visible;overflow-y:visible;perspective-origin:80px 21.5px;text-align:center;text-decoration-color:#ebebeb;text-emphasis-color:#ebebeb;transform-origin:0 0;width:auto;-moz-column-rule-color:#ebebeb;-webkit-text-fill-color:#ebebeb;-webkit-text-stroke-color:#ebebeb;fill:#fff;fill-rule:evenodd"/><path fill="#FFF" d="M42.454 14.19h.103V8.167h.799l2.976 4.763h.195l-.036-1.283v-3.48h.582v5.92h-.662l-3.113-4.995h-.196l.037 1.284v3.71h-.685v.102h.103-.103v.102h.889v-3.917l-.034-1.182-.102.003v.102h.034v-.102l-.087.054 3.144 5.042h.98V7.964h-.992v3.687l.034 1.181.102-.003v-.102h-.033v.102l.086-.054-3.006-4.811h-1.117v6.327h.102v-.102m8.458 0h-.787v-2.848l-2.06-3.275h.924l1.513 2.489h.035l1.478-2.489h.924l-2.027 3.275v2.848" style="border-color:#ebebeb;color:#ebebeb;cursor:pointer;font-weight:400;height:auto;outline-color:#ebebeb;overflow:visible;overflow-x:visible;overflow-y:visible;perspective-origin:80px 21.5px;text-align:center;text-decoration-color:#ebebeb;text-emphasis-color:#ebebeb;transform-origin:0 0;width:auto;-moz-column-rule-color:#ebebeb;-webkit-text-fill-color:#ebebeb;-webkit-text-stroke-color:#ebebeb;fill:#fff;fill-rule:evenodd"/><path fill="#FFF" d="M50.912 14.19v-.103h-.684v-2.775L48.25 8.168h.681l1.514 2.489h.15l1.479-2.489h.682l-1.947 3.144v2.877h.103v-.102.102h.102v-2.818l2.109-3.407h-1.166l-1.508 2.539.088.052v-.102h-.034v.102l.086-.054-1.543-2.537h-1.167l2.145 3.407v2.92h.99v-.102h-.102m2.917 0V8.066h.957l2.976 4.763h.034l-.033-1.18V8.067h.786v6.123h-.82l-3.114-4.995h-.034l.034 1.181v3.814h-.786" style="border-color:#ebebeb;color:#ebebeb;cursor:pointer;font-weight:400;height:auto;outline-color:#ebebeb;overflow:visible;overflow-x:visible;overflow-y:visible;perspective-origin:80px 21.5px;text-align:center;text-decoration-color:#ebebeb;text-emphasis-color:#ebebeb;transform-origin:0 0;width:auto;-moz-column-rule-color:#ebebeb;-webkit-text-fill-color:#ebebeb;-webkit-text-stroke-color:#ebebeb;fill:#fff;fill-rule:evenodd"/><path fill="#FFF" d="M53.829 14.19h.102V8.167h.798l2.976 4.763h.196l-.037-1.283v-3.48h.583v5.92h-.662L54.67 9.092h-.196l.038 1.284v3.71h-.684v.102h.102-.102v.102h.888v-3.917l-.034-1.182-.102.003v.102h.034v-.102l-.087.054 3.144 5.042h.98V7.964h-.992v3.687l.034 1.181.102-.003v-.102h-.033v.102l.086-.054-3.006-4.811h-1.116v6.327h.102v-.102l.001.001zm6.858-6.603h-.684l.446-1.095h.854l-.616 1.095zm-.735 6.602V8.066h.787v6.123h-.787z" style="border-color:#ebebeb;color:#ebebeb;cursor:pointer;font-weight:400;height:auto;outline-color:#ebebeb;overflow:visible;overflow-x:visible;overflow-y:visible;perspective-origin:80px 21.5px;text-align:center;text-decoration-color:#ebebeb;text-emphasis-color:#ebebeb;transform-origin:0 0;width:auto;-moz-column-rule-color:#ebebeb;-webkit-text-fill-color:#ebebeb;-webkit-text-stroke-color:#ebebeb;fill:#fff;fill-rule:evenodd"/><path fill="#FFF" d="M60.687 7.587v-.102h-.533l.363-.891h.612l-.53.943.088.05v-.102.102l.09.05.701-1.247h-1.099l-.528 1.3h.896l.03-.053-.09-.05zm-.735 6.602h.102V8.168h.582v5.92h-.684v.101h.102-.102v.102h.888V7.964h-.99v6.327h.102v-.102zm4.241 0V8.066h.958l2.976 4.763h.034l-.033-1.18V8.067h.787v6.123h-.822L64.98 9.195h-.033l.033 1.181v3.814h-.787v-.001z" style="border-color:#ebebeb;color:#ebebeb;cursor:pointer;font-weight:400;height:auto;outline-color:#ebebeb;overflow:visible;overflow-x:visible;overflow-y:visible;perspective-origin:80px 21.5px;text-align:center;text-decoration-color:#ebebeb;text-emphasis-color:#ebebeb;transform-origin:0 0;width:auto;-moz-column-rule-color:#ebebeb;-webkit-text-fill-color:#ebebeb;-webkit-text-stroke-color:#ebebeb;fill:#fff;fill-rule:evenodd"/><path fill="#FFF" d="M64.193 14.19h.102V8.167h.8l2.976 4.763h.195l-.037-1.283v-3.48h.584v5.92h-.663l-3.113-4.995h-.196l.037 1.284v3.71h-.685v.102h.102-.102v.102h.889v-3.917l-.033-1.182-.103.003v.102h.034v-.102l-.087.054 3.144 5.042h.98V7.964h-.992v3.687l.034 1.181.102-.003v-.102h-.033v.102l.086-.054-3.006-4.811h-1.117v6.327h.102v-.102.001zm7.347-2.396h2.035l-1-2.762h-.034l-1 2.762h-.001zm-1.736 2.395 2.31-6.123h.888l2.31 6.123h-.873l-.59-1.66h-2.574l-.599 1.66h-.872z" style="border-color:#ebebeb;color:#ebebeb;cursor:pointer;font-weight:400;height:auto;outline-color:#ebebeb;overflow:visible;overflow-x:visible;overflow-y:visible;perspective-origin:80px 21.5px;text-align:center;text-decoration-color:#ebebeb;text-emphasis-color:#ebebeb;transform-origin:0 0;width:auto;-moz-column-rule-color:#ebebeb;-webkit-text-fill-color:#ebebeb;-webkit-text-stroke-color:#ebebeb;fill:#fff;fill-rule:evenodd"/><path fill="#FFF" d="M71.54 11.794v.102h2.18L72.647 8.93h-.177l-1.074 2.967h.145v-.103l.096.035 1-2.762-.095-.035v.102h.033v-.102l-.095.035.95 2.625h-1.89v.102l.096.035-.096-.035zm-1.736 2.395.095.036 2.284-6.057h.748l2.233 5.92h-.653l-.59-1.66h-2.718l-.598 1.66h-.801v.101l.095.036-.095-.036v.102h.943l.6-1.66h2.43l.59 1.66h1.092l-2.387-6.327h-1.03l-2.385 6.327h.146v-.102h.001z" style="border-color:#ebebeb;color:#ebebeb;cursor:pointer;font-weight:400;height:auto;outline-color:#ebebeb;overflow:visible;overflow-x:visible;overflow-y:visible;perspective-origin:80px 21.5px;text-align:center;text-decoration-color:#ebebeb;text-emphasis-color:#ebebeb;transform-origin:0 0;width:auto;-moz-column-rule-color:#ebebeb;-webkit-text-fill-color:#ebebeb;-webkit-text-stroke-color:#ebebeb;fill:#fff;fill-rule:evenodd"/></g></svg>