<svg enable-background="new 0 0 45.22 58.66" viewBox="0 0 45.22 58.66" xmlns="http://www.w3.org/2000/svg"><path d="m7.39 25.36c-.69-.54-1.05-1.35-1.05-2.16 0-.59.19-1.19.59-1.69l7.26-9.31c.48-.77 1.34-1.29 2.32-1.29h1s13.21 0 13.27.01.79.04 1.72.66c1.49 1.04 2.29 2.72 2.29 4.41 0 1.06-.31 2.14-.96 3.08l-7.18 10.5-.63-.48c-2.41-1.85-5.3-3.1-8.45-3.52l-1.21-.16 6.22-8.99h-4.71l-6.62 8.5c-.54.68-1.35 1.05-2.16 1.05-.59-.02-1.19-.22-1.7-.61zm32 26.88c.02 0 .07.01.15.01.08 0 .13-.01.15-.01h2.79c1.52 0 2.75-1.23 2.75-2.75 0-1.35-.97-2.47-2.26-2.71v-13.76c0-.25-.03-.48-.08-.71-.31-1.57-1.7-2.75-3.36-2.75h-12.87l1.26 1.28c1.46 1.48 2.65 3.22 3.53 5.14l.2.44h4.46v12.41c0 1.03.47 1.96 1.18 2.57.44.49 1.16.85 1.97.85h.13zm-9.2-8.68c0 8.32-6.77 15.1-15.09 15.1s-15.1-6.78-15.1-15.1 6.77-15.1 15.1-15.1 15.09 6.78 15.09 15.1zm2.67-38.43c0 2.83 2.29 5.12 5.12 5.12 2.83 0 5.12-2.29 5.13-5.12 0-2.83-2.3-5.12-5.13-5.13-2.83 0-5.12 2.3-5.12 5.13z" fill="#1d1d1b"/></svg>