<svg enable-background="new 0 0 55.51 58.71" viewBox="0 0 55.51 58.71" xmlns="http://www.w3.org/2000/svg"><path d="m32.54 17.85v-17.85h3.48c10.77 0 19.49 8.73 19.49 19.49 0 10.77-8.72 19.49-19.49 19.49h-16.53c-10.76.01-19.49-8.72-19.49-19.49 0-.55.03-1.1.08-1.64z"/><path d="m34.95 51.3c0 4.1 3.32 7.42 7.42 7.42 4.09 0 7.41-3.32 7.41-7.42 0-4.09-3.32-7.41-7.41-7.41-4.1-.01-7.42 3.31-7.42 7.41z"/><path d="m6.34 51.3c0 4.1 3.32 7.42 7.42 7.42 4.09 0 7.41-3.32 7.41-7.42 0-4.09-3.32-7.41-7.41-7.41-4.09-.01-7.42 3.31-7.42 7.41z"/></svg>