<svg enable-background="new 0 0 58.83 58.75" viewBox="0 0 58.83 58.75" xmlns="http://www.w3.org/2000/svg"><path d="m48.75 0h-38.67c-5.56 0-10.08 4.52-10.08 10.08s4.52 10.08 10.08 10.08h3.23v32.92c0 3.13 2.54 5.67 5.67 5.67h11.47v-38.59-5.2-5.52h-17.14v5.52h-3.23c-2.69 0-4.88-2.19-4.88-4.88s2.19-4.88 4.88-4.88h38.67c2.69 0 4.88 2.19 4.88 4.88s-2.19 4.88-4.88 4.88h-3.52v-5.52h-7.41v49.31h1.74c3.13 0 5.67-2.54 5.67-5.67v-32.92h3.52c5.56 0 10.08-4.52 10.08-10.08s-4.52-10.08-10.08-10.08z" fill="#1d1d1b"/></svg>