<svg enable-background="new 0 0 35.5 35.46" viewBox="0 0 35.5 35.46" xmlns="http://www.w3.org/2000/svg"><path d="m35.29 28.8-5.89-5.89c1.06-1.54 1.68-3.41 1.68-5.41 0-3.5-1.89-6.56-4.7-8.23 0-.02.01-.03.01-.05v-8.5c0-.4-.32-.72-.72-.72h-21.89c-.4 0-.72.32-.72.72v33.3h-2.34c-.4 0-.72.32-.72.72s.32.72.72.72h29.46c.4 0 .72-.32.72-.72s-.32-.72-.72-.72h-3.78v-7.27l5.48 5.48c.13.14.32.21.51.21s.37-.08.51-.21l2.4-2.4c.27-.29.27-.75-.01-1.03zm-5.64-11.31c0 4.49-3.65 8.14-8.14 8.14s-8.14-3.65-8.14-8.14 3.65-8.14 8.14-8.14 8.14 3.65 8.14 8.14zm-13.63 16.53h-2.6v-5.17h2.6zm1.44 0v-5.89c0-.4-.32-.72-.72-.72h-4.04c-.4 0-.72.32-.72.72v5.89h-7.48v-32.58h20.46v7.12c-1.07-.42-2.23-.65-3.45-.65-5.28 0-9.58 4.3-9.58 9.58s4.3 9.58 9.58 9.58c1.22 0 2.38-.24 3.45-.65v7.59h-7.5zm14.92-3.33-5.14-5.14 1.41-1.36 5.12 5.12z"/><path d="m20.78 11.69c0 .4.32.72.72.72 2.8 0 5.09 2.28 5.09 5.08 0 .4.32.72.72.72s.72-.32.72-.72c0-3.6-2.93-6.53-6.53-6.53-.39.01-.72.33-.72.73z"/><path d="m8.77 4.01c-.4 0-.72.32-.72.72v1.76c0 .4.32.72.72.72s.72-.32.72-.72v-1.76c0-.39-.32-.72-.72-.72z"/><path d="m14.73 7.21c.4 0 .72-.32.72-.72v-1.76c0-.4-.32-.72-.72-.72s-.72.32-.72.72v1.76c0 .4.32.72.72.72z"/><path d="m20.68 7.21c.4 0 .72-.32.72-.72v-1.76c0-.4-.32-.72-.72-.72s-.72.32-.72.72v1.76c0 .4.32.72.72.72z"/><path d="m8.77 9.94c-.4 0-.72.32-.72.72v1.76c0 .4.32.72.72.72s.72-.32.72-.72v-1.76c0-.39-.32-.72-.72-.72z"/><path d="m8.77 15.87c-.4 0-.72.32-.72.72v1.76c0 .4.32.72.72.72s.72-.32.72-.72v-1.76c0-.39-.32-.72-.72-.72z"/><path d="m8.77 21.81c-.4 0-.72.32-.72.72v1.76c0 .4.32.72.72.72s.72-.32.72-.72v-1.76c0-.4-.32-.72-.72-.72z"/><path d="m8.77 27.74c-.4 0-.72.32-.72.72v1.76c0 .4.32.72.72.72s.72-.32.72-.72v-1.76c0-.4-.32-.72-.72-.72z"/><path d="m20.68 27.74c-.4 0-.72.32-.72.72v1.76c0 .4.32.72.72.72s.72-.32.72-.72v-1.76c0-.4-.32-.72-.72-.72z"/></svg>