<svg enable-background="new 0 0 34.22 36.07" height="36.07" viewBox="0 0 34.22 36.07" width="34.22" xmlns="http://www.w3.org/2000/svg"><path d="m33.5 34.63h-2.13c.04-.09.06-.18.06-.28v-27.85c0-.4-.32-.72-.72-.72h-6.48v-5.06c-.01-.4-.33-.72-.73-.72h-19.99c-.4 0-.72.32-.72.72v33.91h-2.07c-.4 0-.72.32-.72.72s.32.72.72.72h32.78c.4 0 .72-.32.72-.72s-.32-.72-.72-.72zm-3.51-27.41v27.13c0 .1.02.19.06.28h-5.82v-27.41zm-25.76-5.78h18.55v33.19h-6.71v-6.01c0-.4-.32-.72-.72-.72h-3.68c-.4 0-.72.32-.72.72v6.01h-6.72zm10.4 33.19h-2.24v-5.29h2.24z"/><path d="m8.07 4.09c-.4 0-.72.32-.72.72v1.79c0 .4.32.72.72.72s.72-.33.72-.72v-1.79c0-.4-.32-.72-.72-.72z"/><path d="m13.51 7.32c.4 0 .72-.32.72-.72v-1.79c0-.4-.32-.72-.72-.72s-.72.32-.72.72v1.79c0 .39.32.72.72.72z"/><path d="m18.94 7.32c.4 0 .72-.32.72-.72v-1.79c0-.4-.32-.72-.72-.72s-.72.32-.72.72v1.79c0 .39.32.72.72.72z"/><path d="m8.07 10.12c-.4 0-.72.32-.72.72v1.79c0 .4.32.72.72.72s.72-.32.72-.72v-1.79c0-.39-.32-.72-.72-.72z"/><path d="m13.51 13.35c.4 0 .72-.32.72-.72v-1.79c0-.4-.32-.72-.72-.72s-.72.32-.72.72v1.79c0 .4.32.72.72.72z"/><path d="m18.94 13.35c.4 0 .72-.32.72-.72v-1.79c0-.4-.32-.72-.72-.72s-.72.32-.72.72v1.79c0 .4.32.72.72.72z"/><path d="m8.07 16.16c-.4 0-.72.32-.72.72v1.79c0 .4.32.72.72.72s.72-.32.72-.72v-1.79c0-.4-.32-.72-.72-.72z"/><path d="m13.51 19.39c.4 0 .72-.32.72-.72v-1.79c0-.4-.32-.72-.72-.72s-.72.32-.72.72v1.79c0 .4.32.72.72.72z"/><path d="m18.94 19.39c.4 0 .72-.32.72-.72v-1.79c0-.4-.32-.72-.72-.72s-.72.32-.72.72v1.79c0 .4.32.72.72.72z"/><path d="m8.07 22.2c-.4 0-.72.32-.72.72v1.79c0 .4.32.72.72.72s.72-.32.72-.72v-1.79c0-.4-.32-.72-.72-.72z"/><path d="m13.51 25.43c.4 0 .72-.32.72-.72v-1.79c0-.4-.32-.72-.72-.72s-.72.32-.72.72v1.79c0 .4.32.72.72.72z"/><path d="m18.94 25.43c.4 0 .72-.32.72-.72v-1.79c0-.4-.32-.72-.72-.72s-.72.32-.72.72v1.79c0 .4.32.72.72.72z"/><path d="m8.07 28.23c-.4 0-.72.32-.72.72v1.79c0 .4.32.72.72.72s.72-.32.72-.72v-1.79c0-.39-.32-.72-.72-.72z"/><path d="m18.94 31.46c.4 0 .72-.32.72-.72v-1.79c0-.4-.32-.72-.72-.72s-.72.32-.72.72v1.79c0 .4.32.72.72.72z"/><path d="m26.98 13.35c.4 0 .72-.32.72-.72v-1.79c0-.4-.32-.72-.72-.72s-.72.32-.72.72v1.79c0 .4.32.72.72.72z"/><path d="m26.98 19.39c.4 0 .72-.32.72-.72v-1.79c0-.4-.32-.72-.72-.72s-.72.32-.72.72v1.79c0 .4.32.72.72.72z"/><path d="m26.98 25.43c.4 0 .72-.32.72-.72v-1.79c0-.4-.32-.72-.72-.72s-.72.32-.72.72v1.79c0 .4.32.72.72.72z"/><path d="m26.98 31.46c.4 0 .72-.32.72-.72v-1.79c0-.4-.32-.72-.72-.72s-.72.32-.72.72v1.79c0 .4.32.72.72.72z"/></svg>