<svg enable-background="new 0 0 39.82 28.63" height="28.63" viewBox="0 0 39.82 28.63" width="39.82" xmlns="http://www.w3.org/2000/svg"><path d="m39.65 26.92c-.01-.01-.02-.02-.03-.03s-.01-.03-.02-.04l-4.7-5.31c.44-.41.71-1 .71-1.64v-17.63c0-1.25-1.02-2.27-2.27-2.27h-26.86c-1.26 0-2.27 1.02-2.27 2.27v17.63c0 .65.28 1.24.72 1.65l-4.69 5.3c-.24.28-.3.66-.15.99.22.49.82.78 1.27.78h37.13c.48 0 1.01-.31 1.23-.72.16-.32.14-.69-.07-.98zm-34-24.65c0-.46.37-.83.83-.83h26.86c.46 0 .83.37.83.83v17.63c0 .46-.37.83-.83.83h-26.86c-.46 0-.83-.37-.83-.83zm.67 19.89c.05 0 .1.02.16.02h26.86c.06 0 .12-.01.17-.02l4.46 5.03-36.09-.03zm.93-2.57h25.33c.4 0 .72-.32.72-.72v-15.66c0-.4-.32-.72-.72-.72h-25.33c-.4 0-.72.32-.72.72v15.65c0 .4.32.73.72.73zm.72-15.66h23.89v14.21h-23.89zm14.75 2.93c.33.23.41.68.18 1l-4.8 6.9c-.14.2-.36.31-.59.31-.14 0-.29-.04-.41-.13-.33-.23-.41-.68-.18-1l4.8-6.9c.23-.33.67-.41 1-.18z"/></svg>