<svg enable-background="new 0 0 35.71 33.63" height="33.63" viewBox="0 0 35.71 33.63" width="35.71" xmlns="http://www.w3.org/2000/svg"><path d="m5.13 21.91c-1.72 0-3.11 1.4-3.11 3.11s1.4 3.11 3.11 3.11 3.11-1.4 3.11-3.11-1.4-3.11-3.11-3.11zm0 4.78c-.92 0-1.67-.75-1.67-1.67s.75-1.67 1.67-1.67 1.67.75 1.67 1.67-.75 1.67-1.67 1.67zm-2.08-7.89h4.16c.4 0 .72-.32.72-.72v-14.08c0-.4-.32-.72-.72-.72h-4.16c-.4 0-.72.32-.72.72v14.07c0 .4.32.73.72.73zm.72-14.08h2.72v12.63h-2.72zm10.3 17.19c-1.72 0-3.11 1.4-3.11 3.11s1.4 3.11 3.11 3.11 3.11-1.4 3.11-3.11-1.39-3.11-3.11-3.11zm0 4.78c-.92 0-1.67-.75-1.67-1.67s.75-1.67 1.67-1.67 1.67.75 1.67 1.67-.75 1.67-1.67 1.67zm-2.08-7.89h4.16c.4 0 .72-.32.72-.72v-14.08c0-.4-.32-.72-.72-.72h-4.16c-.4 0-.72.32-.72.72v14.07c0 .4.32.73.72.73zm.72-14.08h2.72v12.63h-2.72zm22.93 24.92-7.58-28.3c-.25-.94-1.27-1.53-2.22-1.28l-6.4 1.71c-.13.03-.24.08-.36.14-.25-.7-.91-1.2-1.7-1.2h-6.63c-.44 0-.84.17-1.16.43-.31-.26-.71-.42-1.15-.42h-6.63c-1 0-1.81.81-1.81 1.81v29.29c0 1 .81 1.81 1.81 1.81h6.63c.44 0 .84-.17 1.16-.43.31.26.72.43 1.16.43h6.63c1 0 1.81-.81 1.81-1.81v-23.95l6.54 24.42c.21.79.93 1.34 1.75 1.34.16 0 .31-.02.47-.06l6.4-1.72c.47-.12.86-.42 1.1-.84s.31-.91.18-1.37zm-26.83 2.18c0 .2-.17.37-.37.37h-6.63c-.2 0-.37-.17-.37-.37v-29.29c0-.2.17-.37.37-.37h6.63c.2 0 .37.17.37.37zm8.95 0c0 .2-.17.37-.37.37h-6.63c-.2 0-.37-.17-.37-.37v-29.29c0-.2.17-.37.37-.37h6.63c.2 0 .37.17.37.37zm16.45-1.53c-.03.05-.1.14-.23.17l-6.4 1.72c-.19.05-.4-.07-.46-.26l-7.57-28.3c-.03-.13.01-.23.04-.28s.1-.14.22-.17l6.5-1.73c.17 0 .32.12.36.28l7.58 28.29c.04.13-.01.23-.04.28zm-5.28-9.01c-.27 0-.54.04-.81.11-1.66.45-2.64 2.15-2.2 3.81.36 1.36 1.6 2.31 3 2.31.27 0 .54-.04.81-.11 1.66-.44 2.64-2.15 2.2-3.81-.36-1.36-1.59-2.31-3-2.31zm.43 4.73c-.88.23-1.81-.31-2.05-1.18-.24-.89.29-1.81 1.18-2.05.14-.04.29-.06.43-.06.75 0 1.42.51 1.61 1.24.26.89-.28 1.81-1.17 2.05zm.48-9.05-3.64-13.59c-.05-.18-.17-.34-.33-.44-.17-.1-.36-.12-.55-.07l-4.02 1.08c-.38.1-.61.5-.51.88l3.64 13.6c.05.18.17.34.33.44.11.06.24.1.36.1.06 0 .12-.01.19-.02l4.02-1.08c.38-.12.61-.51.51-.9zm-4.21.38-3.27-12.2 2.63-.7 3.27 12.2z"/></svg>