<svg enable-background="new 0 0 58.21 50.19" viewBox="0 0 58.21 50.19" xmlns="http://www.w3.org/2000/svg"><path d="m54.61 16.85-51-.03c-1.99 0-3.6-1.61-3.6-3.6 0-1.98 3.08-13.23 29.14-13.22s29.06 11.27 29.06 13.26c0 1.98-1.61 3.6-3.6 3.59z"/><path d="m3.6 33.33 51 .03c1.99 0 3.6 1.61 3.6 3.6s-3.08 13.24-29.14 13.22c-26.06-.01-29.06-11.26-29.06-13.25s1.61-3.6 3.6-3.6z"/><path d="m4.9 23.97c.17.27 4.13 6.53 11.65 6.53 4.03 0 6.28-1.84 7.92-3.18 1.35-1.1 2.26-1.83 4.11-1.88 1.85.05 2.77.78 4.11 1.88 1.64 1.34 3.89 3.18 7.92 3.19 7.52 0 11.49-6.25 11.66-6.52.82-1.32.41-3.04-.9-3.87s-3.05-.44-3.89.87c-.1.16-2.54 3.87-6.87 3.87-2.01 0-2.94-.76-4.34-1.91-1.7-1.39-3.81-3.11-7.69-3.16-3.88.05-6 1.77-7.69 3.16-1.4 1.14-2.33 1.9-4.34 1.9-4.33 0-6.76-3.72-6.86-3.88-.84-1.31-2.58-1.7-3.89-.88-1.31.84-1.71 2.56-.9 3.88"/></svg>