<svg enable-background="new 0 0 34.32 34.27" viewBox="0 0 34.32 34.27" xmlns="http://www.w3.org/2000/svg"><path d="m19.68 14.09c0-.8.65-1.45 1.45-1.45s1.45.65 1.45 1.45-.65 1.45-1.45 1.45-1.45-.65-1.45-1.45zm-6.46 1.46c.8 0 1.45-.65 1.45-1.45s-.65-1.45-1.45-1.45-1.45.65-1.45 1.45.64 1.45 1.45 1.45zm9.01 4.96c.11-.38-.12-.78-.5-.89-.39-.11-.78.12-.89.5-.37 1.31-1.92 2.27-3.68 2.27s-3.32-.95-3.68-2.27c-.11-.38-.51-.61-.89-.5s-.61.51-.5.89c.55 1.95 2.63 3.32 5.07 3.32s4.52-1.37 5.07-3.32zm7.03 1.24c-.23 2.65-1.55 5.54-3.43 7.42-1.31 1.31-3.28 2.22-5.71 2.67-.28 1.38-1.5 2.43-2.96 2.43-1.66 0-3.02-1.35-3.02-3.02 0-1.66 1.35-3.02 3.02-3.02 1.37 0 2.51.92 2.88 2.16 1.56-.3 3.47-.94 4.77-2.24 1.8-1.8 3.06-4.78 3.06-7.23v-9.48c0-1.23-.31-2.53-.87-3.75-1.68.83-3.53 1.29-5.41 1.29-3.02 0-5.86-1.08-8.09-3.07-1.63 2.52-4.11 4.34-7 5.13-.01.13-.02.27-.02.4v9.48c0 .35-.26.63-.59.69-.13.11-.29.18-.46.18-.02 0-.04 0-.06 0-3.01-.23-5.37-2.92-5.37-6.12 0-3.15 2.29-5.81 5.24-6.1.44-2.2 1.61-4.42 3.28-6.08 2.15-2.16 5.2-3.49 7.96-3.49h1.39c2.76 0 5.81 1.33 7.96 3.48 1.67 1.67 2.84 3.88 3.28 6.09 2.94.31 5.21 2.96 5.21 6.1 0 3.09-2.2 5.69-5.06 6.08zm-10.52 9.5c0-.87-.71-1.58-1.58-1.58s-1.58.71-1.58 1.58.71 1.58 1.58 1.58 1.58-.71 1.58-1.58zm-13.7-10.98v-8.83c0-.13.02-.25.02-.38-2.06.38-3.62 2.31-3.62 4.61 0 2.29 1.55 4.21 3.6 4.6zm21.28-13.85c-.43-.69-.93-1.35-1.51-1.92-1.89-1.89-4.55-3.06-6.94-3.06h-1.39c-2.4 0-5.06 1.17-6.94 3.06-1.38 1.38-2.37 3.17-2.81 4.97 2.54-.87 4.68-2.65 5.98-5.05.11-.2.31-.34.54-.37s.46.05.62.21c2.05 2.11 4.79 3.28 7.73 3.28 1.64 0 3.25-.4 4.72-1.12zm6.56 9.25c0-2.29-1.55-4.21-3.59-4.6.01.12.02.25.02.38v8.83c2.04-.41 3.57-2.33 3.57-4.61z"/></svg>