<svg enable-background="new 0 0 22.38 35.37" viewBox="0 0 22.38 35.37" xmlns="http://www.w3.org/2000/svg"><path d="m18.93 35.37h-15.51c-1.89 0-3.42-1.54-3.42-3.42v-28.53c0-1.89 1.53-3.42 3.42-3.42h15.31c.85 0 2.03.18 2.84 1.01.57.59.84 1.39.81 2.37l-.03.94v.08 27.55c0 1.88-1.54 3.42-3.42 3.42zm-17.49-6.77v3.35c0 1.09.89 1.97 1.97 1.97h15.52c1.09 0 1.98-.89 1.98-1.97v-3.35zm0-1.44h19.47v-21.76h-19.4c-.02 0-.04 0-.06 0v21.76zm1.98-25.72c-1.09 0-1.97.89-1.97 1.98v.54h.06 19.41l.02-.62c.02-.59-.11-1.02-.41-1.32-.48-.5-1.34-.57-1.8-.57h-15.31zm9.45 30.38h-3.39c-.4 0-.72-.32-.72-.72s.32-.72.72-.72h3.39c.4 0 .72.32.72.72s-.32.72-.72.72z"/></svg>