<svg viewBox="0 0 24 24" xmlns="http://www.w3.org/2000/svg"><path d="m12 18.984c3.891 0 6.984-3.094 6.984-6.984s-3.094-6.984-6.984-6.984-6.984 3.094-6.984 6.984 3.094 6.984 6.984 6.984zm8.953-7.968h2.063v1.969h-2.063c-.469 4.172-3.797 7.5-7.969 7.969v2.063h-1.969v-2.063c-4.172-.469-7.5-3.797-7.969-7.969h-2.063v-1.969h2.063c.469-4.172 3.797-7.5 7.969-7.969v-2.063h1.969v2.063c4.172.469 7.5 3.797 7.969 7.969zm-8.953-3c2.203 0 3.984 1.781 3.984 3.984s-1.781 3.984-3.984 3.984-3.984-1.781-3.984-3.984 1.781-3.984 3.984-3.984z"/></svg>