<svg enable-background="new 0 0 18 27" viewBox="0 0 18 27" xmlns="http://www.w3.org/2000/svg"><path d="m15.54 11.86v-4.9c0-3.6-2.94-6.54-6.54-6.54-3.61 0-6.55 2.93-6.55 6.54v4.91c-1.35-.01-2.45 1.09-2.45 2.45v9.81c0 1.35 1.1 2.46 2.45 2.46h13.09c1.35 0 2.46-1.1 2.46-2.46v-9.81c0-1.36-1.1-2.46-2.46-2.46m-11.45-4.9c0-2.7 2.2-4.9 4.91-4.9s4.91 2.2 4.91 4.9v4.91h-9.82zm12.27 17.17c0 .45-.37.82-.82.82h-13.09c-.45 0-.81-.37-.81-.82v-9.81c0-.45.37-.82.81-.82h13.09c.45 0 .82.37.82.82zm-6.54-5.5v-1.86c0-.45-.37-.82-.82-.82s-.82.37-.82.82v1.86c-.49.28-.82.81-.82 1.41 0 .9.73 1.64 1.64 1.64s1.63-.73 1.63-1.64c0-.6-.32-1.13-.81-1.41"/></svg>