<svg enable-background="new 0 0 39.82 28.63" viewBox="0 0 39.82 28.63" xmlns="http://www.w3.org/2000/svg"><path d="m9.96 8.76c-.26-.25-.26-.65-.02-.91.25-.25.65-.26.9-.02l1.25 1.21 2.25-3.18c.2-.29.6-.36.89-.15.29.2.36.6.15.89l-2.68 3.79c-.11.15-.28.25-.46.27-.02 0-.04 0-.06 0-.16 0-.32-.06-.44-.18zm4.38 2.78-2.25 3.18-1.25-1.21c-.25-.25-.66-.24-.9.02-.25.25-.24.66.02.9l1.78 1.73c.12.12.28.18.44.18h.06c.19-.02.35-.11.46-.27l2.68-3.79c.2-.29.13-.69-.15-.89-.29-.21-.69-.14-.89.15zm25.37 16.37c-.21.41-.74.72-1.23.72h-37.13c-.45 0-1.04-.29-1.27-.78-.15-.34-.1-.72.15-.99l4.69-5.3c-.44-.41-.72-1-.72-1.65v-17.64c.01-1.25 1.02-2.27 2.28-2.27h26.86c1.25 0 2.27 1.02 2.27 2.27v17.63c0 .65-.28 1.23-.71 1.64l4.7 5.31c.01.01.01.03.02.04s.02.02.03.03c.21.29.23.66.06.99zm-34.06-8.01c0 .46.37.83.83.83h26.86c.46 0 .83-.37.83-.83v-17.63c0-.46-.37-.83-.83-.83h-26.86c-.46 0-.83.37-.83.83zm-3.77 7.26 36.09.02-4.46-5.03c-.06 0-.12.02-.17.02h-26.86c-.05 0-.1-.01-.16-.02zm15.58-18.39h11.19c.35 0 .64-.29.64-.64s-.29-.64-.64-.64h-11.19c-.35 0-.64.29-.64.64s.29.64.64.64zm0 5.67h11.19c.35 0 .64-.29.64-.64s-.29-.64-.64-.64h-11.19c-.35 0-.64.29-.64.64s.29.64.64.64z"/></svg>