<svg enable-background="new 0 0 34.93 29.71" viewBox="0 0 34.93 29.71" xmlns="http://www.w3.org/2000/svg"><path d="m24.27 18.33c0-3.76-3.06-6.81-6.81-6.81s-6.81 3.06-6.81 6.81c0 3.76 3.06 6.81 6.81 6.81s6.81-3.06 6.81-6.81zm-12.18 0c0-2.96 2.41-5.37 5.37-5.37s5.37 2.41 5.37 5.37-2.41 5.37-5.37 5.37-5.37-2.41-5.37-5.37zm5.35-18.33c-8.34.29-17.35 2.73-17.44 7.45.01.18.03.36.05.55l.52 3.52c.13.9.92 1.59 1.86 1.6.09 0 .18-.01.25-.02l6.04-.89c1.03-.15 1.74-1.11 1.58-2.13-.08-.58-.19-1.07-.27-1.5-.13-.72-.25-1.29-.11-1.49.28-.41 2.02-.74 2.68-.87 2.1-.4 4.49-.51 4.88-.51.35 0 2.74.11 4.84.51.66.12 2.41.46 2.68.87.14.2.02.77-.13 1.49-.09.43-.19.92-.27 1.5-.15 1.02.56 1.98 1.58 2.13l6.03.89c.09.02.18.02.27.02h.01c.91-.01 1.7-.7 1.84-1.6l.54-3.52c.03-.19.04-.37.05-.59-.08-4.68-9.09-7.12-17.48-7.41zm16.01 7.79-.52 3.52c-.03.2-.2.36-.4.37l-6.12-.9c-.24-.04-.41-.26-.37-.5.08-.55.18-1.02.26-1.42.22-1.09.38-1.88-.09-2.58-.52-.77-1.62-1.1-3.61-1.48-2.23-.42-4.7-.53-5.17-.54-.39 0-2.87.11-5.1.54-1.99.38-3.09.71-3.61 1.48-.47.7-.31 1.49-.09 2.58.08.41.18.87.26 1.42.04.24-.13.46-.37.5l-6.09.9c-.21 0-.4-.16-.43-.38l-.52-3.51c-.02-.14-.03-.27-.04-.36.06-3.05 7.11-5.69 16-5.99 8.94.31 15.99 2.94 16.05 5.95-.01.13-.02.27-.04.4zm-4.5 6.54c1.4 4.29 2.39 7.4 2.39 8.42v2.57c0 2.41-1.75 4.38-3.9 4.38h-19.95c-2.15 0-3.9-1.96-3.9-4.38v-2.57c0-.98.9-3.77 2.56-8.58.13-.38.54-.58.92-.45s.58.54.45.92c-.87 2.51-2.48 7.19-2.48 8.11v2.57c0 1.62 1.1 2.94 2.46 2.94h19.95c1.36 0 2.46-1.32 2.46-2.94v-2.57c0-.87-1.4-5.15-2.32-7.98l-.05-.14c-.12-.38.08-.78.46-.91.38-.12.78.08.91.46z"/></svg>