<svg enable-background="new 0 0 33.75 33.75" viewBox="0 0 33.75 33.75" xmlns="http://www.w3.org/2000/svg"><path d="m28.89 33.75c-.12 0-.24-.02-.36-.07-2.68-1.08-4.99-2.48-6.89-4.15-1.54.4-3.14.61-4.77.61-9.3 0-16.87-6.76-16.87-15.07s7.57-15.07 16.88-15.07 16.88 6.76 16.88 15.07c0 3.98-1.7 7.7-4.8 10.53l.89 7.07c.04.34-.1.67-.37.88-.17.13-.38.2-.59.2zm-6.99-6.25c.24 0 .48.09.66.26 1.44 1.35 3.18 2.51 5.18 3.47l-.75-5.9c-.04-.32.08-.64.33-.85 2.92-2.5 4.52-5.84 4.52-9.42 0-7.25-6.71-13.15-14.96-13.15s-14.96 5.91-14.96 13.16 6.71 13.15 14.96 13.15c1.62 0 3.22-.23 4.75-.68.09-.02.18-.04.27-.04zm-3.82-9.86c0-1.24.51-1.63 1.35-2.28.91-.7 2.15-1.65 2.11-3.75-.04-2.45-2.15-4.18-5.01-4.18-2.47.02-4.97 1.52-4.97 4.34 0 .73.59 1.32 1.32 1.32s1.32-.59 1.32-1.32c0-1.33 1.48-1.7 2.36-1.7.8-.01 2.33.32 2.35 1.59.01.73-.27.99-1.08 1.61-.95.73-2.38 1.83-2.38 4.37 0 .73.59 1.32 1.32 1.32s1.31-.59 1.31-1.32zm.46 4.43c0-.86-.7-1.56-1.56-1.56h-.16c-.9 0-1.58.65-1.61 1.51s.65 1.58 1.51 1.61h.25c.87 0 1.57-.7 1.57-1.56z"/></svg>