<svg width="139" height="42" viewBox="0 0 139 42"><path fill="#FFF" d="M5.76 14.56c0 1.36.92 2.88 2.88 2.88 1.08 0 1.96-.52 2.52-1.16 1.04-1.28 1.12-2.84 1.12-5-3.8-.32-6.52.88-6.52 3.28m7.27 6.24c-.2-1.24-.19-2.16-.19-2.76-2.24 3.24-4.92 3.24-6.04 3.24-2.92 0-4.24-.84-5.04-1.6C.56 18.48 0 16.85 0 15.24c0-1.6.56-4.56 4.28-6.28 2.48-1.12 6.04-1.12 8-1.12 0-1.32-.04-1.96-.28-2.68-.52-1.48-2.08-1.68-2.64-1.68-.84 0-1.72.36-2.24 1.12-.44.68-.44 1.32-.44 1.8H.88c.04-1.08.16-3.24 2.28-4.76C5 .32 7.36 0 9.28 0c1.68 0 5.2.28 7.2 2.6 1.36 1.64 1.4 4.04 1.4 4.96l.04 8.12c0 1.72.04 3.44.39 5.12h-5.28zM21.77.52h5.92V20.8h-5.92zM37.16 4.4 37.04.52h-5.56c.12 1.16.28 4.08.28 5.04V20.8h5.92v-9.96c0-2.52.36-5.6 6.36-5.04V.48c-4.8-.24-6.12 2.2-6.88 3.92M64.4 20.62c-1.04 0-3.72.08-5.72 2.72v-8.86h-5.92V41.1h5.72c.12-1.24.16-2.11.2-2.75 1.84 3.16 5.04 3.15 6.08 3.15 4.04 0 8.44-2.64 8.44-10.2 0-6.8-3.88-10.68-8.8-10.68m-1.32 16.87c-2.68 0-4.64-2.16-4.64-6.67 0-1.25 0-6.12 4.37-6.12 4.28 0 4.36 5.22 4.36 6.79-.01 1.02-.01 6-4.09 6M93.01 27.86c0-.92-.04-3.32-1.4-4.96-2-2.32-5.52-2.6-7.2-2.6-1.92 0-4.28.32-6.12 1.64-2.12 1.52-2.24 3.68-2.28 4.76h5.8c0-.48 0-1.12.44-1.8.52-.76 1.4-1.12 2.24-1.12.56 0 2.12.2 2.64 1.68.24.72.28 1.36.28 2.68-1.96 0-5.52 0-8 1.12-3.72 1.72-4.28 4.68-4.28 6.28 0 1.6.56 3.24 1.76 4.44.8.76 2.12 1.6 5.04 1.6 1.12 0 3.8 0 6.04-3.24 0 .6-.04 1.52.16 2.76h5.31c-.36-1.68-.39-3.4-.39-5.12l-.04-8.12zm-6.72 8.73c-.56.64-1.44 1.16-2.52 1.16-1.96 0-2.88-1.52-2.88-2.88 0-2.4 2.72-3.6 6.52-3.28 0 2.15-.08 3.72-1.12 5M115.33 24.14c-.52-1.4-2.2-3.8-6.16-3.8-4.4 0-6 2.6-6.57 3.52l-.16-3.04h-5.68c.12 1.4.12 3.6.12 3.67V41.1h5.96V29.44c0-1.56.36-2.56.72-3.08.64-.96 1.8-1.56 3.08-1.56 1.52 0 2.44.84 2.88 1.72.32.64.32 1.36.32 2.2v12.39h6.04V30.18c.02-3.76-.11-4.8-.55-6.04"/><path fill="#9C3" d="M51.12.51 29.85 41.08h6.16L57.28.51z"/><path fill="#FFF" d="M138.44 20.82h-6.69l-6.09 8.4V14.4h-5.88v26.71h5.88V30.1l6.25 11.01h7l-7.37-11.53z"/></svg>
