<?xml version="1.0" encoding="utf-8"?>
<!-- Generator: Adobe Illustrator 16.0.0, SVG Export Plug-In . SVG Version: 6.00 Build 0)  -->
<!DOCTYPE svg PUBLIC "-//W3C//DTD SVG 1.1//EN" "http://www.w3.org/Graphics/SVG/1.1/DTD/svg11.dtd">
<svg version="1.1" id="Layer_1" xmlns="http://www.w3.org/2000/svg" xmlns:xlink="http://www.w3.org/1999/xlink" x="0px" y="0px"
	  viewBox="0 0 139 42" xml:space="preserve">
<path fill="#FFFFFF" d="M5.76,14.56c0,1.36,0.92,2.88,2.88,2.88c1.08,0,1.96-0.52,2.52-1.16c1.04-1.28,1.12-2.84,1.12-5
	C8.48,10.96,5.76,12.16,5.76,14.56 M13.03,20.8c-0.2-1.24-0.19-2.16-0.19-2.76c-2.24,3.24-4.92,3.24-6.04,3.24
	c-2.92,0-4.24-0.84-5.04-1.6C0.56,18.48,0,16.85,0,15.24c0-1.6,0.56-4.56,4.28-6.28c2.48-1.12,6.04-1.12,8-1.12
	c0-1.32-0.04-1.96-0.28-2.68c-0.52-1.48-2.08-1.68-2.64-1.68c-0.84,0-1.72,0.36-2.24,1.12C6.68,5.28,6.68,5.92,6.68,6.4h-5.8
	c0.04-1.08,0.16-3.24,2.28-4.76C5,0.32,7.36,0,9.28,0c1.68,0,5.2,0.28,7.2,2.6c1.36,1.64,1.4,4.04,1.4,4.96l0.04,8.12
	c0,1.72,0.04,3.44,0.39,5.12H13.03z"/>
<rect x="21.77" y="0.52" fill="#FFFFFF" width="5.92" height="20.28"/>
<path fill="#FFFFFF" d="M37.16,4.4l-0.12-3.88h-5.56c0.12,1.16,0.28,4.08,0.28,5.04v15.24h5.92v-9.96c0-2.52,0.36-5.6,6.36-5.04
	V0.48C39.24,0.24,37.92,2.68,37.16,4.4"/>
<path fill="#FFFFFF" d="M64.4,20.62c-1.04,0-3.72,0.08-5.72,2.72v-8.86h-5.92v26.62h5.72c0.12-1.24,0.16-2.11,0.2-2.75
	c1.84,3.16,5.04,3.15,6.08,3.15c4.04,0,8.44-2.64,8.44-10.2C73.2,24.5,69.32,20.62,64.4,20.62 M63.08,37.49
	c-2.68,0-4.64-2.16-4.64-6.67c0-1.25,0-6.12,4.37-6.12c4.28,0,4.36,5.22,4.36,6.79C67.16,32.51,67.16,37.49,63.08,37.49"/>
<path fill="#FFFFFF" d="M93.01,27.86c0-0.92-0.04-3.32-1.4-4.96c-2-2.32-5.52-2.6-7.2-2.6c-1.92,0-4.28,0.32-6.12,1.64
	c-2.12,1.52-2.24,3.68-2.28,4.76h5.8c0-0.48,0-1.12,0.44-1.8c0.52-0.76,1.4-1.12,2.24-1.12c0.56,0,2.12,0.2,2.64,1.68
	c0.24,0.72,0.28,1.36,0.28,2.68c-1.96,0-5.52,0-8,1.12c-3.72,1.72-4.28,4.68-4.28,6.28c0,1.6,0.56,3.24,1.76,4.44
	c0.8,0.76,2.12,1.6,5.04,1.6c1.12,0,3.8,0,6.04-3.24c0,0.6-0.04,1.52,0.16,2.76h5.31c-0.36-1.68-0.39-3.4-0.39-5.12L93.01,27.86z
	 M86.29,36.59c-0.56,0.64-1.44,1.16-2.52,1.16c-1.96,0-2.88-1.52-2.88-2.88c0-2.4,2.72-3.6,6.52-3.28
	C87.41,33.74,87.33,35.31,86.29,36.59"/>
<path fill="#FFFFFF" d="M115.33,24.14c-0.52-1.4-2.2-3.8-6.16-3.8c-4.4,0-6,2.6-6.57,3.52l-0.16-3.04h-5.68
	c0.12,1.4,0.12,3.6,0.12,3.67v16.61h5.96V29.44c0-1.56,0.36-2.56,0.72-3.08c0.64-0.96,1.8-1.56,3.08-1.56
	c1.52,0,2.44,0.84,2.88,1.72c0.32,0.64,0.32,1.36,0.32,2.2v12.39h6.04V30.18C115.9,26.42,115.77,25.38,115.33,24.14"/>
<polygon fill="#99CC33" points="51.12,0.51 29.85,41.08 36.01,41.08 57.28,0.51 "/>
<polygon fill="#FFFFFF" points="138.44,20.82 131.75,20.82 125.66,29.22 125.66,14.4 119.78,14.4 119.78,41.11 125.66,41.11
	125.66,30.1 131.91,41.11 138.91,41.11 131.54,29.58 "/>
</svg>
